<!--?xml version="1.0" encoding="utf-8"?-->
<!-- Generator: Adobe Illustrator 19.1.1, SVG Export Plug-In . SVG Version: 6.00 Build 0)  -->
<svg version="1.1" id="_x31_0" xmlns="http://www.w3.org/2000/svg" xmlns:xlink="http://www.w3.org/1999/xlink" x="0px" y="0px" viewBox="0 0 512 512" style="width: 256px; height: 256px; opacity: 1;" xml:space="preserve">
<style type="text/css">
	.st0{fill:#374149;}
</style>
<g>
	<path class="st0" d="M454.967,347.915v-33.619h35.479v-20.982l-69.106-25.6v-41.642h33.463v-20.737l-75.91-28.11v-36.54h28.518
		v-28.998l-36.618-7.859V72.555c1.458-2.265,2.265-4.859,2.265-7.45v-6.886l1.221-3.65c2.265-6.478-0.486-13.442-6.4-16.606
		l-2.999-1.622c-0.323-5.342-3.727-9.964-8.672-11.987c-5.342-2.027-10.855-0.891-14.82,3.081l-0.554,0.546l-0.614,0.422h-0.213
		c-4.05,0-7.938,1.782-10.61,5.023c-2.431,2.999-3.486,6.805-2.999,10.45c-0.16,0.727-0.16,1.458-0.16,2.19
		c0,2.531,0.859,4.924,2.151,7.032c0.249,0.458,0.401,0.955,0.692,1.392h-90.205l-55.982-0.089c1.821-2.339,2.868-5.293,2.868-8.335
		c0-0.731-0.082-1.462-0.163-2.19c0.482-3.724-0.646-7.536-3.082-10.45c-2.591-3.241-6.478-5.023-10.614-5.023l-1.455-1.136
		c-4.05-3.805-9.882-4.941-14.823-2.832c-5.026,2.026-8.264,6.641-8.505,11.906l-3,1.622c-5.914,3.163-8.672,10.127-6.478,16.528
		l1.293,3.727v6.886c0,2.591,0.731,5.101,2.186,7.369v31.354l-36.615,7.859v28.998h28.6v36.54l-75.992,28.11v20.737h33.459v41.642
		l-69.105,25.6v20.982h35.564v33.619L0,362.174v26.022v0.16l0,0v0.146h23.655v57.391v0.21h-6.642l-6.585,36.026l-1.193,6.358h0.029
		l-0.029,0.146h493.442l-7.778-42.529h-6.641v-57.601H512v-26.328L454.967,347.915z M462.822,454.04H49.174v-73.474H184.14
		l2.754-2.674l17.582-17.582l6.078-6.158h90.815l6.074,6.158l17.582,17.582l2.673,2.674h135.126v73.173V454.04z M351.107,37.285
		l0.082,7.242l10.042,5.509l-1.942,5.91v9.158l-2.431,2.75h-14.256v-5.509h6.478l1.054-11.906l-4.618-4.374h-2.506l-2.918-0.17
		c0.472-0.443-0.003-3.258-0.064-3.592c-0.003-0.042-0.007-0.089-0.01-0.128h6.063l3.01-3.01L351.107,37.285z M222.622,181.598
		H158.54v-48.847h53.955l18.554-15.15h49.819l18.551,15.15h53.955v48.847h-64.079l-33.378-20.578L222.622,181.598z M214.479,196.865
		l2.716-1.654l21.468-13.209l0.728-0.404l16.527-10.209l16.609,10.209l0.81,0.404l21.386,13.209l1.612,0.983l1.104,0.795h-44.811
		L214.479,196.865z M203.042,79.228l-21.387,17.287l-13.556,10.84V79.118h19.726L203.042,79.228z M171.901,42.198
		c-0.01,0.067-0.622,3.464-0.046,3.762c0.007,0.032,0.011,0.078,0.022,0.106h-5.478l-4.536,4.374l0.973,11.906h6.482v5.509h-14.259
		l-2.35-2.75v-9.158l-2.024-5.91l10.042-5.509l0.085-7.373l5.102,5.022h5.19L171.901,42.198z M341.218,278.572l-38.11-0.124
		l15.917-9.762l12.236-7.536l13.364-8.178l13.369,8.178l12.235,7.536l8.718,5.349l7.17,4.537H341.218z M163.96,278.572l-38.11-0.124
		l15.921-9.762l12.232-7.536l13.372-8.178l13.364,8.178l12.233,7.536l8.71,5.342l7.182,4.543H163.96z M116.093,218.333v-0.117
		h279.814v42.934h-21.146l-30.137-18.551l-30.137,18.551H197.426l-30.051-18.551l-30.141,18.551h-21.142V218.333z M429.445,352.799
		v0.138h-86.278l-29.569-29.484h-115.28l-29.487,29.484H82.474v-46.583h346.971V352.799z"></path>
	<polygon class="st0" points="202.45,146.371 202.45,146.225 185.638,146.225 185.638,168.868 185.638,168.94 185.638,168.94 
		185.638,169.085 202.45,169.085 202.45,146.442 202.45,146.371 	"></polygon>
	<polygon class="st0" points="212.999,146.225 212.999,168.801 212.999,168.94 212.999,168.94 212.999,169.085 229.818,169.085 
		229.818,146.225 	"></polygon>
	<polygon class="st0" points="298.962,146.509 298.962,146.371 298.962,146.371 298.962,146.225 282.14,146.225 282.14,169.085 
		298.962,169.085 	"></polygon>
	<rect x="309.505" y="146.225" class="st0" width="16.765" height="22.86"></rect>
	<rect x="197.764" y="230.023" class="st0" width="15.174" height="25.43"></rect>
	<polygon class="st0" points="222.434,255.307 222.434,255.452 237.609,255.452 237.609,230.023 222.434,230.023 222.434,255.154 
		222.43,255.307 	"></polygon>
	<polygon class="st0" points="289.53,230.324 289.53,230.168 289.53,230.168 289.53,230.023 274.352,230.023 274.352,255.452 
		289.53,255.452 	"></polygon>
	<polygon class="st0" points="299.022,255.307 299.022,255.452 314.197,255.452 314.197,230.023 299.022,230.023 299.022,255.154 
		299.018,255.307 	"></polygon>
	<polygon class="st0" points="84.085,404.323 84.085,404.177 68.906,404.177 68.906,429.544 84.085,429.544 84.085,404.401 
		84.085,404.323 	"></polygon>
	<rect x="93.581" y="404.177" class="st0" width="15.174" height="25.366"></rect>
	<polygon class="st0" points="403.206,404.177 403.206,429.32 403.202,429.398 403.206,429.398 403.206,429.544 418.381,429.544 
		418.381,404.177 	"></polygon>
	<polygon class="st0" points="443.051,404.323 443.047,404.323 443.047,404.177 427.876,404.177 427.876,429.32 427.872,429.398 
		427.876,429.398 427.876,429.544 443.047,429.544 443.047,404.401 	"></polygon>
	<polygon class="st0" points="108.17,345.724 108.17,345.87 123.345,345.87 123.345,320.497 108.17,320.497 108.17,345.572 
		108.17,345.724 	"></polygon>
	<polygon class="st0" points="148.072,320.72 148.072,320.643 148.072,320.643 148.072,320.497 132.9,320.497 132.9,345.87 
		148.072,345.87 	"></polygon>
	<polygon class="st0" points="363.886,345.724 363.886,345.87 379.064,345.87 379.064,320.497 363.886,320.497 363.886,345.65 
		363.886,345.724 	"></polygon>
	<polygon class="st0" points="403.791,320.72 403.791,320.643 403.791,320.643 403.791,320.497 388.613,320.497 388.613,345.87 
		403.791,345.87 	"></polygon>
	<polygon class="st0" points="156.335,392.041 156.335,435.709 156.335,435.844 156.335,435.844 156.335,435.99 164.422,435.99 
		164.422,392.041 	"></polygon>
	<rect x="183.639" y="392.041" class="st0" width="8.09" height="43.949"></rect>
	<rect x="211.008" y="392.041" class="st0" width="8.029" height="43.949"></rect>
	<polygon class="st0" points="238.312,392.041 238.312,435.709 238.312,435.844 238.312,435.844 238.312,435.99 246.342,435.99 
		246.342,392.041 	"></polygon>
	<rect x="265.62" y="392.041" class="st0" width="8.022" height="43.949"></rect>
	<polygon class="st0" points="292.927,392.041 292.927,435.709 292.927,435.844 292.927,435.844 292.927,435.99 300.954,435.99 
		300.954,392.041 	"></polygon>
	<polygon class="st0" points="320.228,392.041 320.228,435.578 320.228,435.844 320.228,435.844 320.228,435.99 328.261,435.99 
		328.261,392.041 	"></polygon>
	<polygon class="st0" points="355.566,392.187 355.566,392.041 347.539,392.041 347.539,435.99 355.566,435.99 355.566,392.318 
		355.566,392.187 	"></polygon>
</g>
</svg>
