<!--?xml version="1.0" encoding="utf-8"?-->
<!-- Generator: Adobe Illustrator 19.1.1, SVG Export Plug-In . SVG Version: 6.00 Build 0)  -->
<svg version="1.1" id="_x31_0" xmlns="http://www.w3.org/2000/svg" xmlns:xlink="http://www.w3.org/1999/xlink" x="0px" y="0px" viewBox="0 0 512 512" style="width: 256px; height: 256px; opacity: 1;" xml:space="preserve">
<style type="text/css">
	.st0{fill:#374149;}
</style>
<g>
	<path class="st0" d="M141.848,128.355c-0.683-1.242-2.398-1.242-3.082,0l-5.82,10.531c-0.688,1.238,0.171,2.79,1.538,2.79h11.645
		c1.367,0,2.222-1.551,1.539-2.79L141.848,128.355z"></path>
	<path class="st0" d="M117.512,128.355c-0.684-1.242-2.398-1.242-3.082,0l-5.82,10.531c-0.688,1.238,0.171,2.79,1.538,2.79h11.641
		c1.371,0,2.226-1.551,1.543-2.79L117.512,128.355z"></path>
	<path class="st0" d="M443.086,370.477c-1.562-14.016-5.538-24.024-10.465-31.122c1.254-7.71,1.867-17.382,1.867-29.59
		c0-26.293-11.668-47.726-24.27-63.27c-2.094-2.637-4.183-5.145-6.222-7.402c0.164-0.218,0.344-0.449,0.504-0.687
		c29.07-40.973,19-93.422,13.281-114.168c5.294-18.359,7.219-40.578,5.047-59.946c-3.519-31.398-17.164-53.094-38.371-61.11
		C378.856,1.074,373.012,0,367.075,0c-32.25,0-56.977,31-74.418,55.66h-13.218C262.028,31.031,237.301,0,205.02,0
		c-5.938,0-11.781,1.074-17.382,3.183C169,10.222,156.243,27.817,151.008,53.246c-3.363-0.43-6.825-0.645-10.313-0.645
		c-39.93,0-72.398,29.07-72.398,64.782c0,17.87,8.262,34.851,22.554,46.972c2.875,9.668,4.618,18.203,5.016,24.906
		c0.183,3.153,0.214,7.926,0.246,13.465c0.214,34.457,0.613,95.961,40.117,120.41c0.367,7.648,1.07,14.046,2.141,19.371
		c-5.786,10.863-8.324,24.203-9.394,35.648c-2.446,26.93,1.746,60.066,19.43,79.742c5.785,25.094,28.613,47.707,53.308,50.551
		c4.192,0.492,8.414,0.734,12.512,0.734c6.855,0,13.222-0.64,19.035-1.926c7.254,2.266,15.637,3.825,25.519,4.742
		c-7.773-3.918-14.656-9.332-20.289-15.973h-0.027c-3-3.488-5.66-7.312-7.926-11.445c-0.305-0.551-0.582-1.102-0.887-1.653
		c-0.644,0.184-1.316,0.336-1.988,0.488l-4.961-8.594c-0.734-1.258-2.508-1.258-3.211,0l-5.722,9.879
		c-2.722-0.027-5.477-0.18-8.199-0.488l-5.45-9.391c-0.703-1.258-2.476-1.258-3.21,0l-3.215,5.535
		c-11.656-6.546-22.215-20.5-22.215-34.546c-13.16-8.902-18.636-32.098-18.636-53.887c0-6.078,0.531-11.953,1.351-17.469
		c0.211-1.25,0.32-2.578,0.586-3.777c4.703,3.629,10.614,7.679,17.864,11.851c3.488,2.019,6.824,4.191,10.003,6.519
		c0,0.028,0.032,0.028,0.032,0.028c14.445,10.558,25.886,24.301,33.355,40.027l0.027,0.031c1.625,3.488,3.094,7.035,4.348,10.711
		c0.363,1.054,0.714,2.038,1.074,3.058l0.844,2.859c0.012-0.102,0.039-0.203,0.051-0.305c0.034,0.102,0.074,0.219,0.113,0.321
		c0.242-2.508,0.641-4.989,1.16-7.497c0.367-1.531,0.734-3.031,1.195-4.558l2.63-9.027v-0.031l4.867-16.89v-0.031
		c-11.352-18.942-27.664-34.977-47.462-46.422c-7.926-4.558-13.801-8.812-17.992-12.27c-0.543-0.461-1.046-0.89-1.543-1.324
		l-0.175-0.187c0.394-0.27,0.812-0.496,1.234-0.692c0.011,0,0.023-0.015,0.035-0.015c0.019,0,0.035,0,0.05,0
		c-0.008,0-0.023-0.012-0.035-0.016c0.074-0.031,0.145-0.09,0.219-0.121c-0.153,0-1.622-0.121-3.09-4.316
		c-0.644-1.926-1.316-4.649-1.867-8.63c-0.734-5.293-1.254-12.726-1.285-23.226v-0.762c0,0,0.457-0.734,1.254-2.05
		c0.493-0.703,1.039-1.594,1.684-2.665c2.957-4.687,7.801-12.449,13.152-21.011l1.57-2.313c0.172,0.746,0.344,1.496,0.516,2.242
		c2.754,11.535,7.038,22.187,12.609,31.793h0.031c0.274,0.523,0.578,1.043,0.887,1.531c0.242,0.461,0.519,0.918,0.824,1.348
		c0.367,0.641,0.766,1.254,1.195,1.863c0,0.031,0,0.031,0,0.031l0.058,0.34c0.032,0.058,0.094,0.121,0.126,0.152l0.027-0.152
		c0.707,1.07,1.41,2.109,2.145,3.121c0.058,0.121,0.152,0.211,0.246,0.336c4.008,5.66,8.566,10.859,13.555,15.606
		c1.164,1.102,2.386,2.172,3.609,3.242c11.566,9.914,25.305,17.289,40.668,21.449c2.164-2.019,4.52-3.863,6.973-5.594
		c0.726-0.465,1.434-1.008,2.176-1.406c-0.047-0.012-0.09-0.027-0.137-0.039c0.058-0.035,0.11-0.082,0.168-0.117
		c-18.481-3.614-34.578-11.906-47.367-23.898c-0.184-0.188-0.367-0.34-0.551-0.524c-6.242-5.965-11.691-12.82-16.187-20.472
		c-0.797-1.254-1.5-2.535-2.172-3.856c-0.766-1.343-1.442-2.691-2.082-4.07c-4.438-9.206-7.653-19.367-9.489-30.324
		c-0.164-0.977-0.297-1.965-0.438-2.953c-0.004-0.41-0.019-0.821,0.028-1.246c0.148,0.11,0.293,0.222,0.441,0.344
		c0.008,0.008,0.012,0.008,0.016,0.015c0.183,0.141,0.398,0.297,0.586,0.442c0.145,0.114,0.317,0.23,0.461,0.344
		c0.469,0.359,0.93,0.718,1.418,1.066c0.641,0.492,1.285,0.949,1.957,1.438c0.305,0.214,0.645,0.43,0.95,0.644
		c0.488,0.336,1.011,0.703,1.558,1.039c0.215,0.125,0.398,0.246,0.614,0.398c0.214,0.122,0.398,0.278,0.613,0.398
		c0.473,0.293,0.981,0.594,1.469,0.894c0.149,0.086,0.301,0.18,0.45,0.27c0.343,0.211,0.683,0.426,1.05,0.641
		c0.058,0.031,0.09,0.062,0.153,0.09c0.316,0.184,0.664,0.371,0.988,0.563c0.652,0.374,1.297,0.754,1.977,1.133
		c0.031,0.015,0.062,0.035,0.094,0.05c0.43,0.246,0.859,0.461,1.285,0.703c0.461,0.246,0.95,0.519,1.442,0.766
		c0.18,0.094,0.367,0.152,0.547,0.278c0.011,0.004,0.023,0.007,0.035,0.015c0.687,0.356,1.43,0.684,2.14,1.031v0.024
		c0.458,0.214,0.918,0.457,1.406,0.671c0.246,0.122,0.488,0.215,0.734,0.336c0.278,0.126,0.551,0.278,0.824,0.398h0.031
		c2.57,1.196,5.298,2.356,8.141,3.458c2.754,1.042,5.629,2.082,8.598,3.031l1.836,0.55c4.164,1.286,8.508,2.481,12.977,3.489
		c1.102,0.246,2.203,0.488,3.305,0.734c0.535,0.121,1.074,0.206,1.637,0.297c0.015,0.007,0.027,0.007,0.042,0.015
		c-0.824,2.629-1.406,5.379-1.679,8.226c-0.153,1.375-0.215,2.782-0.215,4.192c0,21.39,16.094,39.046,36.813,41.523
		c1.652,0.214,3.336,0.305,5.015,0.305c4.195,0,8.234-0.61,12.059-1.774c0.308,0.859,0.851,1.637,1.262,2.461
		c0.078,0.141,0.152,0.297,0.23,0.442c0.43,0.813,0.73,1.668,1.262,2.453c0.121,0.184,0.274,0.398,0.43,0.582
		c0.977,1.406,2.11,2.722,3.363,3.855c0.598,0.558,1.29,0.942,1.922,1.426c0.808,0.657,1.671,1.329,2.629,2.066
		c0.054,0.325,0.109,0.649,0.164,0.946c-2.695-0.43-5.387-0.645-8.078-0.645c-8.602,0-17.137,2.172-24.91,6.458
		c-0.031,0.031-0.09,0.031-0.121,0.062c-12.058,6.668-20.778,17.562-24.602,30.722l-8.508,29.406v0.031l-2.785,9.547
		c-0.95,3.242-1.562,6.578-1.867,9.882c-0.09,1.133-0.153,2.266-0.153,3.394v0.031c-0.031,0.398-0.031,0.766-0.031,1.164
		c0,0.829,0.031,1.653,0.063,2.481v0.027c0.031,0.703,0.09,1.41,0.183,2.082c0.027,0.609,0.09,1.191,0.183,1.805v0.031
		c0.825,6.336,2.844,12.546,6.028,18.328c1.773,3.246,3.855,6.242,6.242,8.969c0.727,0.855,1.626,1.539,2.41,2.34
		c0.582,0.598,1.184,1.183,1.809,1.762c0.847,0.785,1.586,1.687,2.48,2.414c4.133,3.336,8.844,6,13.895,7.894h0.214
		c1.286,0.52,2.387,0.95,3.734,1.348c4.719,1.363,9.512,1.883,14.289,1.883c0.008,0,0.016,0,0.024,0c0,0,0.008,0,0.015,0
		c4.91,0,9.77-0.731,14.516-2.157c0.258-0.078,0.515-0.164,0.774-0.246c1.43-0.458,2.886-0.794,4.285-1.379l0.031-0.031h0.062
		c1.774-0.703,3.52-1.531,5.199-2.477c6.367-3.488,11.782-8.172,16.066-13.71c3.887-5.016,6.856-10.801,8.66-17.074l1.438-4.894
		l1.379-4.805l1.344-4.59l1.316-4.59l2.875-9.882l2.969-10.223c1.836-6.274,2.386-12.637,1.836-18.789
		c-0.211-2.629-0.641-5.199-1.254-7.742c2.512-0.457,4.958-1.285,7.223-2.508c0.797-0.43,1.59-0.886,2.355-1.406l1.531-1.012h0.031
		l0.058-0.058l2.238-1.504l0.559-0.324c1.05,3.566,1.734,7.262,2.195,11c0.094,1.09,0.289,2.199,0.301,3.273
		c0.031-0.038,0.066-0.07,0.098-0.109c0.004,0.07,0.023,0.14,0.027,0.206c5.844-7.374,12.789-14.011,20.562-19.675
		c3.215-2.387,6.578-4.559,10.066-6.578c7.867-4.55,14.07-8.875,18.977-12.726c0.43-0.324,0.926-0.645,1.351-0.965
		c4.742,27.27-5.871,70.617-25.191,81.102v0.492c-0.031,11.344-5.653,21.406-14.274,27.645c-0.382,0.27-0.73,0.57-1.129,0.828
		l-2.348-4.082c-0.703-1.258-2.507-1.258-3.21,0l-5.082,8.809h-0.031c-2.141,0.519-4.344,0.859-6.61,0.981
		c-0.64,0.031-1.312,0.062-1.957,0.031l-5.359-9.297l-0.52-0.934c-0.007,0.031-0.023,0.058-0.034,0.09
		c-0.039-0.043-0.066-0.102-0.114-0.141c-1.195,3.426-2.633,6.73-4.375,9.883c-0.703,1.316-1.438,2.633-2.266,3.886
		c-1.59,2.539-3.367,4.957-5.324,7.25c-4.746,5.671-10.57,10.402-17.106,14.285c-0.578,0.316-1.117,0.68-1.711,0.981
		c0.13-0.02,0.238-0.047,0.363-0.07c-0.121,0.07-0.214,0.164-0.335,0.23c5.754-0.918,10.926-2.082,15.636-3.551
		c5.813,1.286,12.211,1.926,19.032,1.926c1.746,0,3.519-0.058,5.297-0.121c27.019-1.344,49.05-20.714,54.59-46.145
		C438.895,440.578,445.992,396.973,443.086,370.477z M142.411,292.285c-18.329-21.492-18.574-64.449-18.758-89.742
		c-0.031-5.938-0.062-11.047-0.305-14.965c-0.644-10.863-3.582-23.989-8.66-39.106l-0.336-1.012l-0.918-0.582
		c-11.199-7.126-17.598-17.867-17.598-29.496c0-20.535,20.137-37.242,44.859-37.242c2.633,0,5.172,0.183,7.684,0.55
		c0,14.844,2.078,30.203,5.934,43.547c-5.719,20.746-15.758,73.195,13.281,114.168c1.469,2.082,3.031,4.098,4.653,6.058
		c-7.852,12.754-18.551,29.886-27.402,44.019C144.024,289.766,143.2,291.058,142.411,292.285z M344.25,386.203
		c-2.633-0.426-5.113-1.926-6.734-4.344c-1.222-1.836-1.773-3.918-1.683-6c0.062-2.722,1.254-5.355,3.398-7.25
		c0.336-0.278,0.672-0.551,1.039-0.797l-1.07-1.653c-0.582,0.398-1.195,0.734-1.805,0.95c-0.461,0.207-0.942,0.328-1.426,0.453
		c-0.313,0.082-0.629,0.149-0.957,0.199c-0.489,0.07-0.981,0.141-1.473,0.141c-3.274,0-6.458-1.558-8.414-4.465
		c-0.309-0.461-0.582-0.95-0.797-1.469c-0.492-1.008-0.766-2.082-0.859-3.152c-0.274-2.387,0.34-4.836,1.746-6.825v-0.031
		c0.305-0.09,0.614-0.214,0.887-0.336c-0.153-0.09-0.305-0.152-0.457-0.214c0.609-0.762,1.374-1.469,2.23-2.047l-1.102-1.625
		c-1.742,1.164-3.699,1.714-5.66,1.714c-0.399,0-0.794-0.031-1.192-0.062c0,0,0,0-0.031,0c-0.277-0.09-0.582-0.183-0.855-0.274
		c-0.676-0.183-1.317-0.366-1.992-0.519c-1.684-0.734-3.211-1.961-4.313-3.614c-0.855-1.285-1.379-2.66-1.59-4.101
		c-0.614-3.762,0.976-7.707,4.312-9.973l5.172-3.458l2.45-1.652l36.504-24.606l22.308-15.023l11.074-7.465l0.215-0.153
		c1.746-1.164,3.703-1.746,5.664-1.746c0.855,0,1.679,0.121,2.507,0.336c2.325,0.582,4.469,2.019,5.906,4.164l2.172,3.242
		c13.34,19.829,10.832,45.657-4.652,62.516c-1.989,2.172-4.192,4.191-6.61,6.058c-0.793,0.614-1.621,1.192-2.477,1.774l-3.488,2.355
		l-0.184,0.126l-25.062,16.89l-0.062,0.031l-0.121,0.09l-8.414,5.664l-1.621,1.098l-4.746,3.184l-0.394,0.278
		c-1.746,1.164-3.703,1.742-5.664,1.742C345.38,386.355,344.797,386.297,344.25,386.203z M261.781,307.317
		c0.305-9.242,5.938-17.106,13.922-20.626c2.906-1.312,6.121-2.019,9.515-2.019c3.43,0,6.672,0.734,9.578,2.05
		c7.957,3.551,13.527,11.414,13.832,20.594c0.031,0.246,0.031,0.519,0.031,0.797c0,3.855-0.918,7.465-2.57,10.679
		c-1.746,3.426-4.285,6.332-7.406,8.535c-3.793,2.664-8.445,4.254-13.465,4.254c-12.972,0-23.469-10.497-23.469-23.469
		C261.75,307.836,261.75,307.562,261.781,307.317z M172.949,157.562c0.184-2.176,0.43-4.254,0.734-6.305
		c0.246-1.836,0.52-3.641,0.797-5.355c0.305-1.742,0.641-3.398,0.95-4.988c1.59-7.774,3.426-13.738,4.527-16.891
		c-3.426-9.242-5.785-20.562-6.672-32.222c-0.121-1.406-0.214-2.817-0.273-4.222c-0.094-1.286-0.126-2.539-0.153-3.825
		c-0.156-8.078,0.367-16.156,1.711-23.594c2.969-16.25,9.824-29.59,21.726-34.054c2.906-1.102,5.813-1.625,8.722-1.625
		c24.02,0,47.09,34.73,61.657,55.66c0,0,8.66,0,19.371,0c10.71,0,19.37,0,19.37,0c14.562-20.93,37.668-55.66,61.657-55.66
		c2.91,0,5.816,0.523,8.722,1.625c27.05,10.187,28.058,66.278,16.34,97.918c4.102,11.688,17.992,62.027-6.457,98.626
		c-2.234,3.304-4.774,6.488-7.618,9.515c-2.785,2.938-5.875,5.75-9.336,8.352c-17.289,13.129-43.512,21.878-82.679,21.878
		c-19.707,0-36.141-2.203-49.786-6.086c-7.527-2.114-14.199-4.742-20.106-7.805c-1.222-0.614-2.418-1.254-3.578-1.898
		c-1.531-0.887-3-1.774-4.406-2.691c-1.684-1.102-3.309-2.266-4.867-3.458c-3.458-2.602-6.578-5.418-9.363-8.382
		c-3.122-3.309-5.844-6.824-8.203-10.469C172.704,201.348,171.114,177.114,172.949,157.562z M323.2,305.965
		c-0.004-0.305-0.035-0.606-0.066-0.942c-0.286-2.91-0.886-5.742-1.672-8.492c-0.106-0.465-0.187-0.914-0.305-1.386
		c0.695-0.11,1.356-0.219,2.012-0.367c1.324-0.294,2.645-0.586,3.965-0.883c5.363-1.207,10.578-2.641,15.57-4.183l2.203-0.661
		c2.484-0.8,4.89-1.652,7.258-2.523l-0.023,0.023l-26.477,17.813l-0.035,0.035l-1.617,1.106L323.2,305.965z M303.063,415.23
		L303.063,415.23l-0.156-0.047l-2.786,8.75L322,430.848l-4.957,17.015l-1.039,3.61l-11.446-3.61l-11.226-3.55l-0.035-0.012l0,0
		l-0.152-0.047l-1.13,3.61l-1.441,4.59l-0.106,0.313l-0.027,0.086l0,0l-0.051,0.153l12.762,4.039l10.25,3.242
		c-3.394,10.438-13.309,17.657-24.418,17.657c-2.355,0-4.71-0.336-7.038-0.977c-9.61-2.785-16.309-10.742-17.993-19.922
		c-0.305-1.5-0.457-3.031-0.457-4.59c0-1.531,0.121-3.058,0.426-4.59c0.126-0.886,0.336-1.746,0.582-2.633l11.324-38.984
		c3.149-10.86,13.309-18.481,24.691-18.481c2.356,0,4.715,0.367,7.008,1.008c13.554,3.949,21.39,18.176,17.473,31.734l-0.43,1.527
		l-21.489-6.797L303.063,415.23z"></path>
	<path class="st0" d="M194.34,321.027l-0.094,0.367C194.247,321.394,194.614,321.332,194.34,321.027z"></path>
	<path class="st0" d="M301.008,226.535c-0.122-0.094-0.274-0.187-0.394-0.246l-13.344-6.672c-1.317-0.644-2.813-0.644-4.098,0
		l-13.344,6.672c-0.121,0.059-0.274,0.153-0.398,0.246c-1.957,1.222-2.722,3.793-1.652,5.906c0.797,1.621,2.418,2.535,4.102,2.535
		c0.671,0,1.378-0.153,2.05-0.458l11.289-5.66l11.294,5.66c2.234,1.133,5.019,0.215,6.152-2.078
		C303.735,230.328,302.969,227.758,301.008,226.535z"></path>
	<path class="st0" d="M265.516,182.898c-1.777,2.45-2.418,5.324-1.777,7.926c0.613,2.356,2.203,4.25,4.469,5.325
		c1.988,0.949,3.672,1.16,4.805,1.16c2.968,1.867,8.168,3.703,12.206,3.703c4.012,0,9.211-1.836,12.18-3.703
		c1.043,0,2.816-0.211,4.805-1.16c2.297-1.074,3.855-2.969,4.469-5.325c0.641-2.602,0-5.476-1.778-7.926l-2.035-2.766l-0.91-1.363
		l-0.035,0.082l-0.109-0.148l-2.172,4.714c-3.184,6.977-10.527,9.578-14.414,9.578c-3.882,0-11.226-2.602-14.441-9.578l-1.418-3.078
		l-0.625-1.539l-0.054,0.07l-0.074-0.168L265.516,182.898z"></path>
	<path class="st0" d="M380.051,108.172c6.61-28.211,1.867-63.098-10.465-67.778c-1.164-0.398-2.203-0.613-3.367-0.613
		c-12.347,0-29.195,21.156-40.625,37.094c-1.351,1.847-2.672,3.675-3.93,5.438c0.023,0.004,0.047,0.011,0.07,0.015
		c-0.031,0.047-0.07,0.094-0.102,0.141C344.34,87.09,364.567,95.992,380.051,108.172z"></path>
	<path class="st0" d="M190.391,108.203c0.031-0.031,0.094-0.062,0.125-0.094c5.63-4.434,11.871-8.414,18.602-11.902
		c10.442-5.422,22.145-9.602,34.633-12.547c1.633-0.359,3.234-0.789,4.895-1.102c-0.012-0.015-0.024-0.031-0.035-0.05
		c0.054-0.012,0.109-0.027,0.168-0.039c-11.172-16.004-30.754-42.687-44.618-42.687c-1.102,0-2.203,0.214-3.336,0.644
		c-6.637,2.508-11.074,13.77-12.726,28.027c-1.348,11.598-0.859,25.215,1.863,37.73
		C190.086,106.855,190.239,107.527,190.391,108.203z"></path>
	<path class="st0" d="M334.883,177.359c1.41,0,2.786-0.121,4.102-0.336c12.028-1.988,18.758-6.766,28.367-14.445l3.547,4.07
		c1.379,1.562,3.734,1.714,5.297,0.367c1.438-1.254,1.684-3.395,0.61-4.926l-3.122-4.5l-0.09-0.183l-4.008-6.699
		c-0.523-0.918-13.25-22.004-34.121-22.004c-1.684,0-3.394,0.156-5.078,0.43c-19.77,3.246-26.285,21.606-26.988,30.875L303,165.641
		l4.863,2.906C309.364,169.465,322.922,177.359,334.883,177.359z M346.828,165.238c-1.328,0.539-2.714,1-4.187,1.375
		c5.332-3.282,8.469-9.516,7.39-16.059c-0.886-5.57-4.621-10.007-9.457-12.058c9.305,2.203,16.098,9.946,19.218,14.141l1.531,3.027
		C355.856,160.023,351.66,163.125,346.828,165.238z M341.313,146.973c-0.676,1.5-3.184,1.867-5.665,0.797
		c-2.445-1.074-3.914-3.184-3.273-4.684c0.672-1.5,3.21-1.867,5.66-0.797C340.516,143.363,341.953,145.473,341.313,146.973z
		 M324.145,140.946c-4.165,3.488-6.426,9.027-5.481,14.777c0.614,3.719,2.508,6.906,5.137,9.238
		c0.546,0.531,1.113,1.039,1.726,1.504c-6.946-2.187-12.949-5.782-12.949-5.782S313.555,147.187,324.145,140.946z"></path>
	<path class="st0" d="M234.852,128.519c-11.839,0-20.961,6.734-26.836,12.887c-4.679,4.926-7.281,9.453-7.496,9.851l-3.762,6.699
		l-3.183,4.836c-1.133,1.715-0.645,4.039,1.07,5.172c1.59,1.039,3.702,0.703,4.926-0.734l3.43-4.133
		c0.977,0.734,1.894,1.438,2.813,2.114c8.386,6.21,14.996,10.16,25.89,11.687c1.129,0.184,2.293,0.246,3.515,0.246
		c12.118,0,25.891-8.414,27.418-9.363l4.805-3.028l-0.551-5.633c-0.855-9.242-7.774-27.449-27.633-30.293
		C237.789,128.645,236.32,128.519,234.852,128.519z M208.907,156.031c0,0,0.973-2.648,1.438-3.058c3.027-4.258,9.73-12.18,19-14.57
		c-4.832,2.145-8.477,6.672-9.27,12.274c-0.77,5.438,1.39,10.539,5.191,13.973c0.762,0.738,1.543,1.461,2.446,2.054
		C220.911,164.84,215.957,161.402,208.907,156.031z M228.735,146.91c-0.703-1.5,0.734-3.61,3.148-4.742
		c2.45-1.133,4.989-0.828,5.696,0.676c0.671,1.5-0.734,3.609-3.184,4.742C231.977,148.715,229.438,148.41,228.735,146.91z
		 M248.844,164.543c-1.23,0.484-2.528,0.945-3.875,1.347c3.461-2.43,5.969-6.183,6.594-10.714c0.824-5.695-1.5-11.141-5.664-14.566
		c10.59,6.058,11.875,19.371,11.875,19.371S253.93,162.375,248.844,164.543z"></path>
	<path class="st0" d="M360.774,197.402c-20.043-7.774-36.906-0.734-37.61-0.43c-1.558,0.676-2.293,2.449-1.621,4.008
		c0.671,1.562,2.449,2.297,4.007,1.625c0.094-0.031,6.52-2.695,15.79-2.695c1.004,0,2.062,0.058,3.129,0.129
		c0.676,0.043,1.347,0.113,2.019,0.183c2.16,0.234,4.406,0.618,6.73,1.219c0.57,0.144,1.133,0.316,1.699,0.484
		c1.196,0.356,2.395,0.723,3.622,1.199c0.367,0.122,0.734,0.184,1.102,0.184c1.254,0,2.386-0.734,2.874-1.961
		C363.129,199.789,362.332,198.016,360.774,197.402z"></path>
	<path class="st0" d="M345.442,214.293c-8.446-4.867-16.86-5.203-17.29-5.203c-1.714-0.062-3.121,1.258-3.152,2.938
		c-0.031,0.887,0.305,1.684,0.886,2.266c0.52,0.551,1.227,0.887,2.051,0.918c0.152,0,11.414,0.488,19.644,8.168
		c0.582,0.554,1.348,0.797,2.082,0.797c0.828,0,1.652-0.305,2.266-0.981c1.133-1.222,1.07-3.148-0.183-4.312
		C349.727,217.016,347.582,215.516,345.442,214.293z"></path>
	<path class="st0" d="M247.278,196.973c-0.614-0.274-13.098-5.477-29.317-2.02c-2.691,0.551-5.446,1.348-8.293,2.45
		c-1.59,0.614-2.355,2.386-1.742,3.946c0.457,1.226,1.622,1.961,2.844,1.961c0.367,0,0.734-0.062,1.102-0.184
		c1.086-0.422,2.144-0.746,3.203-1.07c0.714-0.218,1.426-0.426,2.144-0.605c1.043-0.266,2.082-0.532,3.098-0.711
		c1.36-0.258,2.653-0.394,3.942-0.527c0.598-0.059,1.191-0.126,1.793-0.164c10.906-0.699,18.703,2.503,18.809,2.558
		c1.562,0.672,3.367-0.062,4.008-1.625C249.54,199.422,248.836,197.649,247.278,196.973z"></path>
	<path class="st0" d="M242.289,209.09c-0.461,0-8.414,0.309-16.617,4.805c-0.242,0.122-0.458,0.246-0.703,0.398
		c-2.141,1.223-4.286,2.723-6.305,4.59c-1.222,1.164-1.313,3.09-0.152,4.312c0.613,0.676,1.41,0.981,2.234,0.981
		c0.734,0,1.5-0.242,2.082-0.797c1.652-1.528,3.394-2.782,5.172-3.762c7.16-4.129,14.379-4.406,14.473-4.406
		c0.824-0.031,1.531-0.367,2.082-0.918c0.551-0.582,0.918-1.378,0.887-2.266C245.38,210.348,243.973,209.027,242.289,209.09z"></path>
	<path class="st0" d="M286.75,214.598v-0.305v-8.05c0-0.825-0.702-1.527-1.531-1.527c-0.855,0-1.527,0.702-1.527,1.527v8.05v0.305
		c0,0.859,0.672,1.531,1.527,1.531C286.048,216.129,286.75,215.457,286.75,214.598z"></path>
	<path class="st0" d="M385.957,457.043c2.539,0,4.59-2.051,4.59-4.59c0-2.538-2.051-4.59-4.59-4.59h-25.89l-2.062,7.039
		l-0.629,1.981h0.046l-0.046,0.16H385.957z"></path>
	<path class="st0" d="M184.453,447.863c-2.507,0-4.59,2.051-4.59,4.59c0,2.539,2.082,4.59,4.59,4.59h37.856
		c-0.094-1.531-0.157-3.059-0.157-4.59c0-1.434,0.062-2.867,0.145-4.301c0.008-0.038,0.004-0.09,0.008-0.129h-0.004
		c0.004-0.054,0.004-0.106,0.008-0.16H184.453z"></path>
	<path class="st0" d="M287.364,308.848l0.766,0.766c2.996,2.996,7.711,1.926,9.547-1.164c0.64-1.008,0.949-2.294,0.734-3.703
		c0-0.059,0-0.153-0.031-0.215c-0.856-5.629-5.45-10.25-11.11-11.106c-0.058,0-0.122,0-0.184-0.031
		c-5.629-0.766-8.874,6.274-4.863,10.282L287.364,308.848z"></path>
</g>
</svg>
