<svg width="40" height="40" viewBox="0 0 40 40" fill="none" xmlns="http://www.w3.org/2000/svg">
<path d="M30.1727 27.6336L21.5832 20L30.1727 12.3663C30.6064 11.981 30.6464 11.3157 30.2611 10.88C29.8759 10.4442 29.2106 10.4063 28.7748 10.7915L20.0001 18.5915L11.2253 10.7915C10.7916 10.4063 10.1264 10.4442 9.73901 10.88C9.35164 11.3157 9.39164 11.9789 9.82743 12.3663L18.4169 20L9.82743 27.6336C9.39374 28.0189 9.35374 28.6842 9.73901 29.12C9.94743 29.3536 10.2358 29.4736 10.5264 29.4736C10.7748 29.4736 11.0253 29.3852 11.2253 29.2084L20.0001 21.4084L28.7748 29.2084C28.9748 29.3873 29.2253 29.4736 29.4737 29.4736C29.7643 29.4736 30.0527 29.3536 30.2611 29.12C30.6464 28.6863 30.6085 28.021 30.1727 27.6336Z" fill="#EAE0CD"/>
<path d="M20 40C14.6568 40 9.63579 37.92 5.85684 34.1432C2.07789 30.3663 0 25.3432 0 20.0021C0 14.6589 2.08 9.63789 5.85684 5.85895C9.63369 2.08 14.6568 0 20 0C25.3432 0 30.3642 2.08 34.1432 5.85895C37.9221 9.63789 40 14.6589 40 20.0021C40 25.3453 37.92 30.3663 34.1432 34.1432C30.3663 37.92 25.3432 40 20 40ZM20 2.10526C10.1326 2.10526 2.10526 10.1326 2.10526 20C2.10526 29.8674 10.1326 37.8947 20 37.8947C29.8674 37.8947 37.8947 29.8674 37.8947 20C37.8947 10.1326 29.8674 2.10526 20 2.10526Z" fill="#EAE0CD"/>
</svg>
