<!--?xml version="1.0" encoding="utf-8"?-->
<!-- Generator: Adobe Illustrator 18.1.1, SVG Export Plug-In . SVG Version: 6.00 Build 0)  -->

<svg version="1.1" id="_x31_0" xmlns="http://www.w3.org/2000/svg" xmlns:xlink="http://www.w3.org/1999/xlink" x="0px" y="0px" viewBox="0 0 512 512" style="width: 256px; height: 256px; opacity: 1;" xml:space="preserve">
<style type="text/css">
	.st0{fill:#374149;}
</style>
<g>
	<path class="st0" d="M491.023,249.778c-2.059-23.055-5.821-43.93-10.821-63.035c-0.023-0.094-0.046-0.184-0.07-0.274
		c-1.558-5.934-3.238-11.691-5.042-17.266c-0.18-0.558-0.356-1.125-0.535-1.684c-1.703-5.16-3.504-10.171-5.406-15.031
		c-0.254-0.656-0.492-1.336-0.754-1.984c-2.035-5.102-4.165-10.054-6.402-14.828c-0.102-0.215-0.192-0.446-0.294-0.664
		c-2.367-5.008-4.832-9.852-7.402-14.508c-0.281-0.516-0.586-0.985-0.87-1.492c-2.207-3.938-4.473-7.766-6.813-11.458
		c-0.762-1.203-1.554-2.336-2.328-3.511c-1.969-2.993-3.965-5.93-6.012-8.758c-0.77-1.062-1.554-2.086-2.336-3.121
		c-2.226-2.973-4.492-5.863-6.801-8.652c-0.527-0.637-1.054-1.27-1.586-1.895C371.472,15.285,293.914,0,255.999,0
		C218.128,0,140.64,15.27,84.562,81.512c-0.594,0.695-1.179,1.398-1.766,2.105c-2.242,2.715-4.437,5.52-6.605,8.402
		c-0.84,1.114-1.68,2.215-2.508,3.356c-1.981,2.73-3.902,5.57-5.801,8.453c-0.84,1.27-1.695,2.496-2.52,3.793
		c-2.238,3.539-4.406,7.211-6.523,10.973c-0.375,0.668-0.778,1.29-1.148,1.965c-2.551,4.629-5,9.438-7.352,14.41
		c-0.145,0.309-0.278,0.637-0.422,0.949c-2.191,4.684-4.282,9.539-6.282,14.539c-0.277,0.703-0.539,1.442-0.816,2.153
		c-1.879,4.808-3.66,9.766-5.348,14.871c-0.191,0.586-0.378,1.187-0.566,1.781c-1.793,5.539-3.465,11.262-5.015,17.156
		c-0.031,0.122-0.062,0.242-0.094,0.364c-5,19.098-8.758,39.957-10.82,62.996C9.742,375.594,86.601,440.367,158.199,470.442v17.527
		c0,13.258,43.801,24.031,97.801,24.031c54.039,0,97.836-10.774,97.836-24.031v-17.562
		C425.433,440.332,502.258,375.594,491.023,249.778z M126.914,93.817c0,0.71,0.039,1.422,0.074,2.133
		c0.355,6.367,1.422,13.937,4.015,21.937c0.102,0.278,0.203,0.574,0.305,0.864l0.054,0.335c-2.23-0.527-5.152-0.839-8.82-0.453
		c-2.168,0.285-4.586,0.782-7.145,1.848c-1.316,0.535-2.633,1.136-3.945,2.027c-1.317,0.746-2.633,1.777-3.875,2.914
		c-1.282,1.066-2.418,2.489-3.523,3.875c-0.566,0.782-1.172,1.778-1.703,2.703c-0.286,0.496-0.57,0.996-0.782,1.492
		c-0.285,0.496-0.535,1.031-0.535,1.137l-0.535,1.422l-0.246,0.711l-0.035,0.11l-0.356,0.992v0.11l-0.109,0.32l-0.106,0.676
		c-0.355,1.778-0.746,3.66-0.711,5.332c-0.07,1.707,0,3.375,0.25,4.871l0.355,2.274l0.531,2.062
		c0.746,2.774,1.813,5.121,2.954,7.254c2.273,4.226,4.976,7.43,7.5,9.918c2.558,2.488,4.906,4.195,6.683,5.297
		c0.851,0.606,1.598,0.957,2.098,1.242c0.531,0.321,0.817,0.391,0.817,0.391l0.39,0.144c0.676,0.25,1.422,0.321,2.172,0.211
		c2.484-0.39,4.191-2.734,3.801-5.187c0,0-0.07-0.321-0.106-0.786c-0.035-0.461-0.106-1.242-0.25-2.133
		c-0.25-1.738-0.64-4.23-1.066-7.25c-0.21-1.422-0.461-2.918-0.64-4.446c-0.176-1.527-0.391-3.094-0.426-4.586
		c-0.07-0.746-0.105-1.458-0.07-2.133c0-0.711-0.034-1.387,0.035-1.993c0.035-0.636,0.106-1.171,0.215-1.633
		c0.019-0.336,0.129-0.531,0.222-0.762c0.11-0.109,0.192-0.218,0.394-0.332l-0.007-0.414l0.137-0.34l0.64-1.352
		c0.051-0.175,0.086-0.234,0.106-0.246l0.004-0.004c0.023-0.008,0.031,0.035,0.031,0.07c0.035,0.07,0,0.144,0,0.179
		c0.035-0.07,0.07-0.179,0.145-0.25c0.246-0.355,0.566-0.852,1.137-1.387c0.531-0.566,1.242-1.136,1.988-1.777
		c0.782-0.57,1.602-1.137,2.383-1.672c0.851-0.566,1.562-1.031,2.168-1.422c0.64-0.391,1.136-0.782,1.457-0.997
		c0.21-0.125,0.281-0.222,0.312-0.293l0.278-0.117c1.258,0.046,2.473-0.215,3.558-0.73c0.126-0.043,0.25-0.066,0.379-0.114
		c0.004,0.012,0,0.023,0.023,0.047c1.742,2.523,3.199,4.336,4.871,6.222c0.738,0.84,1.477,1.645,2.246,2.418
		c0.008,0.016,0.019,0.024,0.027,0.035c-10.414,8.566-17.098,21.543-17.098,36.047c0,4.992,0.828,9.805,2.324,14.317
		c0.062,0.214,0.086,0.437,0.153,0.652c-0.746,0.106-1.559,0.246-2.477,0.426c-1.848,0.39-4.051,0.817-6.398,1.278
		c-2.278,0.465-4.622,0.996-6.789,1.246l-1.602,0.141l-0.746,0.07l-0.39,0.039h-0.215c0,0,0.07,0.035,0.18,0.07
		c-0.821-0.07-1.602-0.11-2.383-0.18c-0.32-0.035-0.676,0-1.031,0.035c-0.886-0.035-1.778-0.141-2.523-0.246
		c-0.746-0.11-1.457-0.25-2.027-0.43c-1.172-0.246-2.098-0.636-2.664-0.886c-0.286-0.07-0.535-0.18-0.606-0.145
		c-0.07,0-0.106,0.11-0.106,0.145c-0.031,0.058,0.012,0.195,0.027,0.234l-0.015,0.004l-0.012-0.023
		c-1.176-3.914-5.121-6.402-9.211-5.618c-4.371,0.817-7.214,5.047-6.398,9.383c0,0,0.11,0.535,0.286,1.531
		c0.14,0.746,0.355,1.668,0.746,2.805c0.746,2.277,2.274,5.191,4.766,8.07c1.242,1.422,2.699,2.738,4.371,4.055
		c1.637,1.242,3.45,2.312,5.367,3.344c1.066,0.496,2.207,0.992,3.344,1.457c0.746,0.281,1.457,0.566,2.203,0.886
		c1.172,0.321,2.382,0.641,3.554,0.996c1.102,0.286,2.133,0.426,3.199,0.641c2.133,0.321,4.23,0.566,6.258,0.637
		c2.028,0.145,3.981,0.11,5.829-0.031c3.734-0.25,7.078-0.926,9.812-1.672c2.774-0.82,5.016-1.707,6.543-2.453
		c0.781-0.391,1.386-0.711,1.882-0.961c0.57-0.286,0.676-0.426,0.676-0.426l1.566-1.386c0.321-0.32,0.637-0.641,0.922-0.961
		c7.825,5.902,17.493,9.422,28.051,9.422c25.668,0,46.5-20.832,46.5-46.465c0-3.164-0.32-6.258-0.961-9.278
		c7.109-3.914,12.125-11.27,12.621-19.945c0.782-13.402-9.422-24.922-22.824-25.738c-0.355,0.141-6.008,0.496-13.969-0.355
		c-4.375-0.462-9.457-1.317-14.434-2.738c-4.942-1.458-9.742-3.52-13.618-6.149c-0.926-0.641-1.957-1.457-2.453-1.778
		c-0.215,0-0.961-0.89-1.562-1.531l-0.465-0.496l-0.211-0.25c0,0-0.07-0.07-0.11-0.07l-0.426-0.426
		c-1.812-1.958-3.41-4.161-4.871-6.363c-2.878-4.446-4.867-9.282-6.258-13.618c-1.207-4.015-1.918-7.68-2.309-10.344
		c7.18-1.816,13.723-2.598,19.836-2.598c35.981,0,55.672,26.914,85.465,26.914c29.794,0,49.524-26.914,85.5-26.914
		c7.074,0,14.754,1.031,23.25,3.52c-0.426,2.558-1.102,5.832-2.168,9.422c-1.387,4.336-3.414,9.172-6.293,13.618
		c-1.422,2.202-3.024,4.406-4.871,6.363l-0.641,0.746l-0.106,0.106c0.035-0.07,0.106-0.141,0.141-0.211l-0.141,0.106l-0.461,0.496
		c-0.57,0.641-1.316,1.531-1.531,1.531c-0.531,0.321-1.527,1.137-2.488,1.778c-3.84,2.629-8.637,4.691-13.614,6.149
		c-4.981,1.422-10.027,2.277-14.438,2.738c-7.926,0.851-13.578,0.496-13.934,0.355c-13.402,0.816-23.641,12.336-22.859,25.738
		c0.426,7.324,4.09,13.722,9.492,17.882c-0.886,3.625-1.386,7.43-1.386,11.34c0,25.633,20.867,46.465,46.5,46.465
		c10.558,0,20.226-3.519,28.05-9.457c0.286,0.355,0.641,0.676,0.958,0.996l1.531,1.386c0,0,0.14,0.141,0.71,0.426
		c0.496,0.25,1.066,0.57,1.848,0.961c1.566,0.746,3.805,1.633,6.543,2.453c2.773,0.746,6.078,1.422,9.812,1.672
		c1.883,0.141,3.801,0.176,5.863,0.031c1.992-0.07,4.126-0.316,6.223-0.637c1.102-0.214,2.133-0.355,3.234-0.641
		c1.171-0.355,2.347-0.675,3.519-0.996c0.746-0.32,1.492-0.606,2.238-0.886c1.141-0.465,2.242-0.961,3.309-1.457
		c1.953-1.032,3.769-2.102,5.402-3.344c1.637-1.317,3.13-2.633,4.375-4.055c2.489-2.878,3.981-5.793,4.762-8.07
		c0.356-1.137,0.57-2.059,0.746-2.805c0.18-0.996,0.285-1.531,0.285-1.531c0.817-4.336-2.062-8.566-6.434-9.383
		c-4.09-0.785-8.034,1.703-9.171,5.618l-0.024,0.038h-0.007c0.003-0.038,0.031-0.191,0.031-0.254
		c-0.035-0.035-0.035-0.145-0.11-0.145c-0.106-0.035-0.32,0.074-0.602,0.145c-0.57,0.25-1.496,0.641-2.703,0.886
		c-0.57,0.18-1.242,0.321-1.992,0.43c-0.782,0.105-1.633,0.21-2.523,0.246c-0.356-0.035-0.711-0.07-1.067-0.035
		c-0.781,0.07-1.562,0.11-2.347,0.18c0.074-0.035,0.145-0.07,0.145-0.07h-0.18l-0.39-0.039l-0.746-0.07l-1.598-0.141
		c-2.172-0.25-4.516-0.781-6.793-1.246c-2.344-0.461-4.551-0.887-6.434-1.278c-0.821-0.164-1.562-0.289-2.258-0.394
		c-0.066-0.019-0.13-0.023-0.192-0.047c1.598-4.687,2.485-9.73,2.485-14.953c0-13.543-5.809-25.742-15.074-34.234
		c-0.047-0.047-0.09-0.098-0.141-0.145c1.352-1.281,2.668-2.664,3.946-4.121c1.637-1.886,3.094-3.699,4.836-6.222
		c0.816-1.11,1.148-1.707,1.5-2.352c0.046-0.058,0.082-0.113,0.129-0.172h0.008c0.246,0.176,0.496,0.356,0.816,0.531
		c0.606,0.391,1.352,0.891,2.168,1.462c0.817,0.496,1.602,1.102,2.418,1.668c0.746,0.605,1.457,1.21,1.988,1.742
		c0.535,0.57,0.89,1.066,1.106,1.422c0.106,0.07,0.141,0.179,0.176,0.25c-0.035-0.07-0.035-0.106-0.035-0.179
		c0.035-0.106,0.035-0.211,0.179,0.144l0.602,1.387l0.321,0.637l-0.246-0.672c0.07,0.175,0.316,0.246,0.351,0.672
		c0.11,0.32,0.321,0.64,0.321,1.175c0.144,0.461,0.214,1.031,0.214,1.672c0.106,0.566,0.07,1.242,0.07,1.954
		c0.035,0.675,0,1.422-0.07,2.167c-0.07,1.493-0.25,3.024-0.461,4.551c-0.179,1.531-0.426,3.058-0.606,4.481
		c-0.461,2.984-0.816,5.476-1.066,7.218c-0.144,0.922-0.214,1.703-0.285,2.133c-0.035,0.496-0.07,0.782-0.07,0.782
		c-0.106,0.71-0.07,1.492,0.211,2.202c0.82,2.383,3.378,3.626,5.762,2.809l0.39-0.141c0,0,0.25-0.109,0.782-0.394
		c0.535-0.32,1.281-0.672,2.133-1.242c1.777-1.102,4.125-2.844,6.683-5.298c2.523-2.488,5.226-5.687,7.5-9.953
		c1.106-2.098,2.207-4.446,2.918-7.218l0.566-2.063l0.359-2.308c0.246-1.458,0.316-3.164,0.246-4.871
		c0.035-1.637-0.355-3.52-0.71-5.297l-0.141-0.676l-0.074-0.355v-0.07l-0.39-0.996l-0.035-0.106l-0.746-2.133
		c-0.035-0.145-0.285-0.641-0.531-1.176c-0.25-0.496-0.5-0.957-0.781-1.457c-0.535-0.926-1.141-1.954-1.707-2.738
		c-1.106-1.386-2.242-2.809-3.519-3.875c-1.282-1.137-2.563-2.168-3.914-2.914c-1.313-0.852-2.629-1.458-3.91-1.993
		c-2.558-1.102-4.976-1.562-7.144-1.847c-1.352-0.141-2.63-0.168-3.782-0.141l-0.09-0.015c1.434-5.11,2.117-9.891,2.535-14.325
		c0.129-1.042,0.312-2.039,0.422-3.106c35.594,33.11,71.152,113.754,58.969,163.203c-16.426,66.406-55.566,78.246-191.547,78.246
		c-135.945,0-175.086-11.84-191.511-78.246C51.867,209.039,90.156,124.746,126.914,93.817z M124.785,146.141
		c0.011-0.016,0.019-0.047,0.035-0.062l-0.035,0.109V146.141z M157.703,154.114c5.192-3.63,11.52-5.762,18.344-5.762
		c15.606,0,28.687,11.13,31.641,25.883c0.426,2.062,0.641,4.23,0.641,6.398c0,17.778-14.469,32.246-32.282,32.246
		c-17.774,0-32.246-14.469-32.246-32.246C143.8,169.649,149.312,159.942,157.703,154.114z M335.953,212.879
		c-17.774,0-32.282-14.469-32.282-32.246c0-2.168,0.215-4.301,0.641-6.363c2.953-14.754,16.035-25.918,31.641-25.918
		c7.609,0,14.578,2.633,20.086,7.039c7.43,5.902,12.195,15.039,12.195,25.242C368.234,198.41,353.765,212.879,335.953,212.879z
		 M295.995,414.094v17.457c0,3.02-0.605,5.082-1.706,6.469h-39.782c-1.102-1.386-1.707-3.449-1.707-6.469V418.43
		c-1.672,1.813-2.988,1.813-3.59,1.813c-1.301,0-2.187-0.821-2.871-1.77c-0.145-0.266-0.285-0.539-0.382-0.824v0.242
		c-0.051-0.082-0.11-0.16-0.161-0.242v18.558c0,0.676-0.035,1.277-0.175,1.812h-11.059c-0.14-0.71-0.14-1.351-0.14-1.812v-11.024
		l0.102-6.878c-0.035,0.027-0.07,0.035-0.102,0.062v-0.184c-0.782,0.637-2.242,1.634-4.126,1.634c-3.304,0-5.722-3.234-5.722-6.434
		c0-2.594,1.527-3.875,3.805-5.723c9.098-7.539,11.766-13.797,11.766-14.187c0-0.672-0.606-0.922-1.246-0.922h-8.316
		c-4.195,0-5.547-1.922-5.547-5.726c0-4.867,3.946-5.046,5.547-5.046h16.106c0.781,0,2.523,0.461,3.374,0.996
		c2.063,1.386,2.278,4.371,2.278,5.442c0,6.718-3.875,12.726-6.258,16.492c1.313,1.226,3.953,3.824,5.766,5.93
		c0.344,0.453,0.711,0.914,0.938,1.305c0.004-0.051,0.023-0.086,0.027-0.137c0.035,0.046,0.098,0.11,0.129,0.156
		c0.711-6.363,5.371-6.969,8.961-6.969h25.027c2.032,0,3.746,0.262,5.133,0.894c0.274,0.126,0.52,0.282,0.762,0.438
		c0.668,0.422,1.254,0.938,1.714,1.622c0.094,0.137,0.168,0.297,0.254,0.445C295.562,409.754,295.995,411.59,295.995,414.094z
		 M246.289,380.402c-0.317,0.086-0.637,0.168-1.024,0.168c-0.71,0-3.449-0.606-6.578-1.387c-0.746-0.144-4.446-0.89-5.192-1.136
		c-0.675-0.215-2.667-0.821-2.667-3.664c0-0.922,0.394-5.333,4.87-5.333c1.317,0,4.73,0.462,8.25,1.458
		c3.27,0.89,5.332,1.742,5.332,4.656c0,0.394-0.023,4.012-2.504,5.086C246.628,380.317,246.457,380.355,246.289,380.402z
		 M254.793,395.074v-4.516c0-6.539,1.847-7.679,8.105-7.679h23.106c6.258,0,8.176,1.066,8.176,7.679v4.516
		c0,6.578-1.848,7.714-8.176,7.714h-23.106C256.711,402.789,254.793,401.793,254.793,395.074z M289.594,380.641h-30.145
		c-2.598,0-5.582-0.676-5.582-4.871c0-3.519,2.062-4.906,5.582-4.977h30.145c2.453,0,5.582,0.606,5.582,4.906
		C295.175,379.359,293.117,380.641,289.594,380.641z M171.816,438.019c-0.035,0-0.035-0.035-0.035-0.035
		c-3.91-7.394-7.43-17.457-9.633-27.66l-0.786-3.805l-0.675-4.015c-0.426-2.558-0.746-5.156-0.993-7.75
		c-0.465-4.766-0.605-9.703-0.394-14.218c0.18-3.84,0.676-7.715,1.458-10.879c0.359-1.457,0.679-2.558,0.961-3.378l0.43-1.172
		c1.633-4.836,5.969-7.93,10.875-7.93c0.179,0,0.39,0,0.57,0.035c0.426,0,0.851,0.035,1.281,0.109
		c0.641,0.106,1.242,0.246,1.848,0.462c2.878,0.996,5.226,3.023,6.578,5.758c1.348,2.774,1.528,5.867,0.566,8.746
		c-0.25,0.746-0.602,1.493-1.031,2.168l-0.25,0.5c-0.176,0.246-0.352,0.606-0.602,1.031l-0.215,0.426
		c-0.461,1.031-1.422,3.34-2.274,6.824c-0.855,3.554-1.496,7.465-1.886,11.414c-0.176,2.168-0.32,4.441-0.426,6.754l-0.07,3.414
		l0.07,3.66c0.214,9.137,1.602,18.734,3.734,25.703c0.367,1.258,0.75,2.32,1.106,3.316c0.042,0.176,0.094,0.336,0.133,0.523H171.816
		z M126.062,359.879c-0.21,0.57-0.461,1.137-0.746,1.637c0,0-0.07,0.14-0.25,0.355c-0.14,0.246-0.355,0.676-0.64,1.207
		c-0.531,1.137-1.242,3.058-1.883,5.617c-0.606,2.558-1.172,5.722-1.492,9.207c-0.18,1.742-0.286,3.554-0.356,5.406
		c0,0.922-0.034,1.847-0.034,2.77l0.034,2.918c0.176,7.641,1.352,15.321,3.02,20.762c0.785,2.699,1.707,4.832,2.453,6.219
		c0.321,0.64,0.57,1.137,0.891,1.566c0.285,0.39,0.426,0.602,0.426,0.602l0.676,1.031c0.781,1.141,0.496,2.703-0.676,3.484
		c-1.137,0.746-2.664,0.465-3.45-0.676c-0.14-0.246-0.285-0.496-0.355-0.746c0-0.07-0.641-0.531-2.023-2.238
		c-1.211-1.527-2.738-3.805-4.234-6.649c-2.985-5.687-5.828-13.687-7.606-21.968l-0.641-3.059c-0.176-1.066-0.355-2.133-0.566-3.164
		c-0.32-2.098-0.57-4.16-0.785-6.187c-0.391-4.016-0.462-7.89-0.286-11.305c0.145-3.41,0.606-6.398,1.141-8.602
		c0.282-1.102,0.531-1.992,0.746-2.633c0.21-0.602,0.32-0.957,0.32-0.957l0.07-0.145c1.527-4.477,6.398-6.859,10.878-5.332
		C125.171,350.527,127.59,355.398,126.062,359.879z M350.671,406.519l-0.82,3.805c-2.203,10.203-5.688,20.266-9.598,27.66
		c0,0,0,0.035-0.035,0.035c-1.562,3.13-3.485,6.078-5.332,8.391c-1.317,1.633-2.098,2.382-2.418,2.523
		c-0.106,0.426-0.285,0.817-0.496,1.137c-0.711,1.066-1.922,1.707-3.199,1.707c-0.746,0-1.492-0.25-2.133-0.676
		c-1.742-1.172-2.207-3.554-1.031-5.297l1.422-2.098c0.282-0.39,0.531-0.89,0.852-1.422l0.214-0.426
		c0.391-0.746,1.031-2.062,1.742-3.84c0.39-1.102,0.852-2.382,1.278-3.839c2.133-6.969,3.519-16.566,3.734-25.703l0.035-3.66
		l-0.07-3.414c-0.07-2.313-0.215-4.586-0.426-6.754c-0.356-3.95-0.996-7.86-1.852-11.414c-0.851-3.484-1.812-5.793-2.309-6.824
		l-0.214-0.426c-0.211-0.426-0.39-0.785-0.566-1.031l-0.286-0.5c-0.39-0.675-0.746-1.422-0.996-2.168
		c-0.996-2.878-0.781-5.972,0.57-8.746c1.348-2.734,3.695-4.762,6.574-5.758c0.606-0.215,1.211-0.356,1.851-0.462
		c0.391-0.074,0.782-0.109,1.207-0.109c0.215-0.035,0.426-0.035,0.641-0.035c4.906,0,9.242,3.094,10.879,7.93l0.39,1.172
		c0.32,0.82,0.602,1.922,0.996,3.378c0.746,3.164,1.278,7.039,1.457,10.879c0.211,4.515,0.07,9.453-0.39,14.218
		c-0.25,2.594-0.606,5.192-0.996,7.75L350.671,406.519z M383.839,419.176l0.711-1.031c0,0,0.144-0.211,0.426-0.602
		c0.285-0.43,0.535-0.926,0.89-1.566c0.711-1.387,1.633-3.52,2.454-6.219c1.672-5.441,2.843-13.121,3.019-20.762l0.035-2.918
		c-0.035-0.922-0.035-1.848-0.07-2.77c-0.035-1.852-0.176-3.664-0.32-5.406c-0.321-3.485-0.887-6.649-1.527-9.207
		c-0.606-2.558-1.352-4.48-1.883-5.617c-0.285-0.531-0.465-0.962-0.641-1.207c-0.144-0.215-0.214-0.355-0.214-0.355
		c-0.282-0.5-0.566-1.066-0.746-1.637c-1.527-4.481,0.856-9.352,5.367-10.879c4.481-1.527,9.352,0.855,10.879,5.332l0.035,0.145
		c0,0,0.144,0.355,0.32,0.957c0.25,0.641,0.5,1.531,0.786,2.633c0.531,2.203,0.992,5.191,1.136,8.602
		c0.176,3.414,0.07,7.289-0.32,11.305c-0.18,2.027-0.465,4.09-0.781,6.187c-0.18,1.031-0.356,2.098-0.535,3.164l-0.641,3.059
		c-1.778,8.281-4.622,16.281-7.641,21.968c-1.461,2.844-2.988,5.122-4.234,6.649c-1.348,1.707-1.988,2.168-2.023,2.238
		c-0.07,0.25-0.18,0.5-0.321,0.746c-0.781,1.141-2.347,1.422-3.484,0.676C383.379,421.879,383.094,420.317,383.839,419.176z"></path>
	<path class="st0" d="M279.215,425.894v5.191h4.726c0.926,0,1.457-0.461,1.457-1.422v-3.77H279.215z"></path>
	<path class="st0" d="M283.941,413.238h-4.726v4.871h6.183v-3.41C285.398,413.774,284.937,413.238,283.941,413.238z"></path>
	<path class="st0" d="M263.429,425.894v3.77c0,0.961,0.535,1.422,1.422,1.422h4.766v-5.191H263.429z"></path>
	<path class="st0" d="M263.429,414.699v3.242v0.008l0,0v0.16h6.188v-4.871h-4.766C263.891,413.238,263.429,413.703,263.429,414.699z
		"></path>
	<path class="st0" d="M282.273,390.558h-15.57c-1.07,0-1.461,0.641-1.461,1.458v1.457c0,0.926,0.39,1.461,1.461,1.461h15.57
		c0.992,0,1.457-0.535,1.457-1.461v-1.457C283.73,391.094,283.265,390.558,282.273,390.558z"></path>
	<path class="st0" d="M233.957,213.019c1.886,0.391,3.449,0.746,4.339,1.242c0.962,0.465,0.887,1.106,1.066,0.606
		c0,0,0.07-0.531,1.137-1.278c1.031-0.71,3.129-1.386,5.402-1.351c2.207-0.035,4.446,0.711,5.692,1.672
		c1.277,0.922,1.562,1.953,1.562,1.953c0.105,0.286,0.64,0.676,1.457,0.926c0.496,0.141,0.996,0.141,1.386-0.035
		c0.426,0.176,0.926,0.176,1.422,0.035c0.781-0.25,1.316-0.64,1.457-0.926c0,0,0.25-1.031,1.566-1.953
		c1.207-0.961,3.446-1.707,5.687-1.672c2.238-0.035,4.336,0.641,5.367,1.351c1.102,0.746,1.172,1.278,1.172,1.278
		c0.18,0.5,0.11-0.141,1.031-0.606c0.926-0.496,2.454-0.851,4.34-1.242c2.098-0.5,4.266-1.316,5.402-3.199
		c1.137-1.812,1.102-4.586-1.066-6.754c-0.711-0.75-1.602-1.282-2.418-1.602c0,0-2.63-1.066-5.973-1.066
		c-3.379-0.07-7.394,0.926-10.77,2.844c-3.133,1.734-5.625,4.343-6.926,6.945c-0.094,0.153-0.25,0.294-0.336,0.446
		c-1.192-2.75-3.863-5.558-7.137-7.39c-3.379-1.918-7.394-2.914-10.774-2.844c-3.375,0-5.973,1.066-5.973,1.066
		c-0.851,0.32-1.707,0.852-2.453,1.602c-2.168,2.168-2.168,4.942-1.066,6.754C229.727,211.703,231.898,212.519,233.957,213.019z"></path>
	<path class="st0" d="M335.632,266.098l0.145,0.106c0,0,0.461,0.285,1.313,0.781c0.996,0.606,2.206,1.282,3.805,2.207
		c3.199,1.813,7.785,4.226,13.402,6.894c2.809,1.352,5.938,2.703,9.242,4.126c3.344,1.351,6.934,2.738,10.774,4.015
		c7.715,2.489,16.316,4.801,26.379,5.086c2.453,0.14,5.297-0.215,7.855-0.395c1.351-0.175,2.809-0.566,4.16-0.886l2.062-0.496
		l1.031-0.285h0.07l1.172-0.391h0.074c0.035-0.035,0.106-0.035,0.106-0.035h-0.106l0.176-0.074l0.32-0.176l2.523-1.211l0.606-0.281
		c0.211-0.11,0.39-0.18,0.817-0.466l2.206-1.316c1.383-0.886,2.879-1.848,4.051-2.844c0.996-0.992,1.992-2.023,2.949-3.054
		c0.996-0.961,1.742-2.098,2.489-3.234c0.71-1.102,1.496-2.207,2.027-3.309c1.031-2.274,2.098-4.48,2.558-6.613
		c1.352-4.301,1.602-8.141,1.778-11.626c0.039-3.445-0.176-6.504-0.496-9.133c-0.356-2.633-0.746-4.871-1.137-6.722
		c-0.426-1.813-0.782-3.27-1.066-4.266c-0.321-1.066-0.5-1.668-0.5-1.668c-1.031-3.554-4.477-6.008-8.317-5.726
		c-4.41,0.355-7.714,4.195-7.359,8.606l0.07,0.957c0,0,0.035,0.359,0.07,0.996c0.07,0.746,0.145,1.886,0.179,3.344
		c0.035,1.457,0,3.234-0.109,5.226c-0.141,1.988-0.426,4.156-0.922,6.363c-0.57,2.168-1.171,4.477-2.277,6.254
		c-0.426,1.032-1.102,1.672-1.633,2.454c-0.286,0.394-0.676,0.606-0.961,0.89c-0.321,0.321-0.57,0.641-0.962,0.782
		c-0.347,0.175-0.695,0.351-0.98,0.598c-0.008,0-0.016,0.004-0.024,0.008c-0.277,0.062-0.422-0.035-0.558,0.034
		c-0.07,0-0.106,0.035-0.144,0.106c0,0-0.211,0.07-0.462,0.145l-0.675,0.176l-1.91,0.527l-0.629,0.125l0.336-0.117l-0.356-0.035
		l-0.71-0.039c-0.5-0.035-0.891,0.039-1.422-0.035c-1.21-0.286-2.202-0.246-3.519-0.637c-5.05-1.176-10.984-3.875-16.355-6.898
		c-2.699-1.492-5.297-3.129-7.75-4.726c-2.453-1.637-4.726-3.203-6.824-4.766c-4.195-3.094-7.606-5.828-9.883-7.75
		c-1.102-0.961-2.062-1.777-2.523-2.203c-0.57-0.535-0.855-0.781-0.855-0.781c-0.922-0.821-1.954-1.602-3.02-2.242
		c-9.316-5.617-21.367-2.629-26.984,6.684C323.331,248.426,326.32,260.516,335.632,266.098z"></path>
	<path class="st0" d="M76.539,270.965c0.57,1.106,1.387,2.207,2.098,3.309c0.746,1.102,1.496,2.238,2.527,3.234
		c0.958,0.996,1.989,1.992,3.02,2.988c1.176,0.992,2.668,1.954,4.09,2.805l2.203,1.282c0.426,0.25,0.606,0.32,0.817,0.426
		l0.64,0.285l2.559,1.137l0.32,0.145l0.145,0.07l0.07,0.035l1.246,0.39l1.027,0.25l2.062,0.462c1.352,0.285,2.809,0.64,4.126,0.785
		c2.558,0.141,5.367,0.39,7.785,0.176c9.918-0.606,18.344-3.199,25.774-6.114c3.699-1.422,7.074-3.094,10.274-4.66
		c3.164-1.633,6.046-3.27,8.675-4.832c5.192-3.199,9.352-6.118,12.161-8.32c1.422-1.102,2.453-1.954,3.305-2.665
		c0.71-0.605,1.101-0.961,1.101-0.961c4.801-4.09,6.188-11.164,2.914-16.851c-3.695-6.398-11.871-8.602-18.309-4.906l-0.426,0.25
		c0,0-1.492,0.852-4.086,2.379c-2.668,1.531-6.508,3.77-11.094,6.328c-2.312,1.352-4.801,2.633-7.43,4.055
		c-2.633,1.386-5.402,2.738-8.25,4.09c-5.649,2.594-11.766,4.977-16.957,5.863c-1.348,0.32-2.379,0.18-3.59,0.426
		c-0.531,0.039-0.922-0.07-1.422-0.07h-1.137l-2.168-0.64l-0.641-0.176c-0.25-0.07-0.461-0.145-0.461-0.18
		c-0.039-0.07-0.074-0.106-0.145-0.141c-0.105-0.105-0.246-0.034-0.496-0.105c-0.285-0.25-0.606-0.43-0.961-0.641
		c-0.355-0.145-0.606-0.461-0.926-0.746c-0.246-0.32-0.637-0.535-0.886-0.926c-0.5-0.782-1.137-1.457-1.563-2.453
		c-1.07-1.742-1.671-4.051-2.206-6.188c-0.531-2.168-0.852-4.336-0.996-6.324c-0.176-1.957-0.211-3.734-0.211-5.191
		c0-1.458,0.035-2.594,0.07-3.344c0-0.355,0-0.641,0.035-0.816c0-0.141-0.035-0.215-0.035-0.215v-1.492
		c-0.035-3.305-2.203-6.398-5.547-7.465c-4.195-1.352-8.672,0.926-10.023,5.121c0,0-0.215,0.602-0.535,1.668
		c-0.321,0.996-0.746,2.418-1.207,4.266c-0.426,1.817-0.855,4.054-1.211,6.722c-0.355,2.629-0.602,5.688-0.566,9.172
		c0.176,3.481,0.426,7.356,1.813,11.695C74.406,266.488,75.507,268.691,76.539,270.965z"></path>
	<path class="st0" d="M214.867,263.645c3.024,0.961,6.294-0.746,7.254-3.805v-0.035c0,0,0.426-1.387,1.598-3.45
		c0.606-1.242,1.351-1.847,2.277-2.878c0.817-1.031,2.309-1.922,3.875-2.844c1.527-1.031,3.555-1.531,5.512-2.242
		c1.027-0.316,2.168-0.461,3.234-0.675c1.137-0.211,2.238-0.426,3.41-0.426c2.347-0.175,4.73-0.285,7.183-0.246
		c2.238-0.145,4.516,0.07,6.789-0.039c2.274,0.11,4.586-0.106,6.825,0.039c2.453-0.039,4.801,0.07,7.148,0.246
		c1.207,0,2.309,0.215,3.41,0.426c1.102,0.214,2.242,0.359,3.238,0.675c1.953,0.711,4.015,1.211,5.507,2.242
		c1.602,0.922,3.059,1.813,3.875,2.844c0.961,1.031,1.707,1.637,2.278,2.878c1.172,2.062,1.633,3.45,1.633,3.45v0.035
		c0.961,3.058,4.195,4.766,7.254,3.805c3.059-0.962,4.762-4.23,3.805-7.29c-0.5-1.527-1.602-2.738-2.918-3.414
		c0,0-1.313-0.676-3.199-2.168c-0.782-0.746-2.418-1.778-3.946-2.879c-1.562-1.281-3.305-2.203-5.152-3.414
		c-1.817-1.313-3.985-2.168-6.188-3.52c-2.238-0.996-4.621-2.309-7.218-3.27c-1.278-0.461-2.594-0.961-3.946-1.457
		c-1.351-0.426-2.774-0.676-4.156-1.066c-2.527-0.606-5.086-0.782-7.68-0.926v-0.07c-0.039,0-0.039,0-0.07,0
		c-0.144,0.035-0.32,0.035-0.5,0.035c-0.14,0-0.32,0-0.496-0.035h-0.035v0.07c-2.598,0.144-5.191,0.32-7.679,0.926
		c-1.422,0.39-2.809,0.641-4.161,1.066c-1.351,0.496-2.667,0.996-3.98,1.457c-2.562,0.961-4.942,2.274-7.219,3.27
		c-2.168,1.352-4.335,2.207-6.148,3.52c-1.852,1.21-3.594,2.133-5.156,3.414c-1.528,1.102-3.164,2.133-3.981,2.879
		c-1.851,1.492-3.164,2.168-3.164,2.168c-1.352,0.675-2.418,1.886-2.918,3.414C210.105,259.414,211.812,262.683,214.867,263.645z"></path>
	<path class="st0" d="M258.683,274.274c-0.02-0.008-0.039-0.016-0.058-0.023c-0.829-0.309-1.684-0.458-2.602-0.466
		c-0.016,0-0.031-0.011-0.047-0.011c-0.039,0-0.078,0.015-0.117,0.015c-0.594,0.008-1.172-0.094-1.782,0.059
		c-3.981,0.992-6.324,5.187-5.687,9.277l5.762,36.758c0.141,0.785,0.746,1.422,1.527,1.531c0.996,0.175,1.957-0.5,2.098-1.531
		l5.867-37.329c0.106-0.746,0.141-1.598,0-2.378C263.191,277.324,261.187,275.234,258.683,274.274z"></path>
	<path class="st0" d="M199.543,312.195l-0.004,0.004h0.004c0,0,0.004,0.004,0.004,0.008c0.461,0.746,1.313,1.102,2.023,0.816
		c0,0,7.68-2.843,14.754-7.785c3.558-2.418,6.863-5.332,9.206-7.786c2.348-2.382,3.734-4.266,3.734-4.266
		c0.5-0.605,0.891-1.316,1.137-2.098c0.676-2.172,0.215-4.41-1.066-6.082c-0.922-1.242-2.238-2.024-3.73-2.454
		c-0.606-0.175-1.246-0.281-1.886-0.316c-4.051-0.394-7.074,1.102-7.961,3.875c0,0-0.43,1.598-1.458,3.98
		c-1.031,2.383-2.668,5.547-4.73,8.566c-4.086,6.078-9.882,11.27-9.882,11.27c-0.496,0.426-0.606,1.246-0.286,1.992
		C199.437,312.023,199.503,312.125,199.543,312.195z"></path>
	<path class="st0" d="M296.136,285.793c-0.175-0.535-0.426-1.066-0.781-1.496c-1.031-1.207-2.633-1.847-4.551-2.058
		c-1.351-0.074-2.843-0.074-4.336,0.351l-0.039-0.035c0,0,0,0.035,0,0.074c-0.601,0.141-1.206,0.355-1.777,0.672
		c-3.66,1.992-4.191,7.183-1.598,10.348c0,0,1.386,1.812,3.734,4.16c2.308,2.382,5.613,5.226,9.098,7.641
		c6.969,4.801,14.542,7.609,14.542,7.609c0.637,0.25,1.422,0.035,1.918-0.606c0.07-0.07,0.145-0.175,0.145-0.285
		c0.461-0.746,0.39-1.668-0.145-2.168c0,0-5.902-5.297-10.027-11.481c-2.094-3.058-3.73-6.293-4.762-8.71
		C296.562,287.39,296.136,285.793,296.136,285.793z"></path>
	<path class="st0" d="M165.383,299.16c-0.465,0.461-0.606,1.242-0.286,1.989c0.035,0.105,0.106,0.214,0.141,0.285
		c0.004,0.004,0.008,0.008,0.012,0.012h-0.004h0.004c0.461,0.77,1.344,1.09,2.05,0.805c0,0,7.68-2.844,14.754-7.75
		c3.519-2.453,6.824-5.367,9.172-7.785c2.347-2.418,3.769-4.301,3.769-4.301c0.462-0.57,0.852-1.317,1.102-2.098
		c0.676-2.134,0.215-4.406-1.066-6.078c-0.89-1.211-2.202-1.992-3.699-2.418c-0.602-0.179-1.242-0.285-1.918-0.355
		c-4.016-0.39-7.074,1.137-7.965,3.91c0,0-0.426,1.602-1.457,3.98c-0.997,2.383-2.664,5.512-4.727,8.57
		C171.175,293.969,165.383,299.16,165.383,299.16z"></path>
	<path class="st0" d="M321.094,287.035c2.308,2.382,5.582,5.226,9.066,7.61c7.003,4.836,14.574,7.64,14.574,7.64
		c0.641,0.25,1.387,0.039,1.883-0.602c0.074-0.07,0.144-0.179,0.144-0.285c0.497-0.746,0.426-1.672-0.105-2.203
		c0,0-5.902-5.262-10.028-11.449c-2.098-3.055-3.769-6.294-4.762-8.711c-1.031-2.414-1.461-4.051-1.461-4.051
		c-0.141-0.496-0.426-1.031-0.781-1.457c-0.997-1.21-2.594-1.886-4.516-2.062c-1.351-0.106-2.844-0.07-4.336,0.355h-0.035
		c-0.606,0.141-1.207,0.391-1.777,0.676c-3.665,2.027-4.196,7.215-1.602,10.379C317.359,282.875,318.746,284.691,321.094,287.035z"></path>
	<path class="st0" d="M176.047,203.348c12.586,0,22.754-10.165,22.754-22.715c0-3.094-0.606-6.043-1.742-8.711
		c-3.414-8.246-11.52-14.042-21.012-14.042c-3.305,0-6.434,0.71-9.242,1.957c-3.546,1.586-6.578,4.082-8.867,7.145
		c-0.598,0.738-1.187,1.484-1.695,2.277c0.07-0.039,0.156-0.05,0.226-0.082c-0.046,0.078-0.109,0.144-0.152,0.222
		c1.707-0.886,3.734-1.386,5.938-1.386c6.007,0,10.843,3.699,10.843,8.285c0,4.586-4.836,8.282-10.843,8.282
		c-2.973,0-5.633-0.946-7.59-2.434c-0.422-0.363-0.851-0.723-1.171-1.161c0,0.055,0.015,0.106,0.015,0.161
		c-0.05-0.059-0.125-0.098-0.179-0.157C153.543,193.359,163.605,203.348,176.047,203.348z"></path>
	<path class="st0" d="M347.082,160.797c-3.274-1.851-7.074-2.918-11.129-2.918c-6.805,0-12.84,3.074-16.981,7.832
		c-1.019,1.113-2.031,2.238-2.824,3.546c0.078-0.042,0.172-0.054,0.25-0.094c-0.05,0.086-0.129,0.149-0.175,0.234
		c1.706-0.886,3.734-1.386,5.938-1.386c1.988,0,3.874,0.426,5.472,1.137c3.203,1.422,5.371,4.09,5.371,7.148
		c0,4.586-4.871,8.282-10.843,8.282c-2.985,0-5.672-0.954-7.645-2.473c-0.414-0.363-0.836-0.722-1.156-1.156
		c0.003,0.054,0.019,0.105,0.019,0.16c-0.05-0.059-0.125-0.098-0.176-0.157c0.176,12.406,10.309,22.395,22.75,22.395
		c12.55,0,22.754-10.165,22.754-22.715C358.707,172.102,354.011,164.672,347.082,160.797z"></path>
</g>
</svg>
