<!--?xml version="1.0" encoding="utf-8"?-->
<!-- Generator: Adobe Illustrator 18.1.1, SVG Export Plug-In . SVG Version: 6.00 Build 0)  -->

<svg version="1.1" id="_x31_0" xmlns="http://www.w3.org/2000/svg" xmlns:xlink="http://www.w3.org/1999/xlink" x="0px" y="0px" viewBox="0 0 512 512" style="width: 256px; height: 256px; opacity: 1;" xml:space="preserve">
<style type="text/css">
	.st0{fill:#374149;}
</style>
<g>
	<path class="st0" d="M358.274,376.266c-0.77-0.07-1.539-0.141-2.238-0.141c-2.718,0-6.008,0.566-9.562,1.406
		c-0.711,0.141-1.313,0.222-2.07,0.386c0.015,0.02,0.027,0.039,0.039,0.058c-0.058,0.016-0.11,0.024-0.168,0.039
		c7.98,10.848,13.793,23.379,11.27,35.352c-2.797,13.09-10.008,21.418-21.981,25.48c-4.106,1.398-8.617,2.211-13.406,2.543
		c-0.234,0.016-0.465,0.035-0.703,0.051c-9.441,0.554-19.957-0.825-30.73-3.614c-0.828-0.219-1.652-0.434-2.488-0.672
		c-1.879-0.523-3.758-1.094-5.645-1.699c-3.273-1.086-6.57-2.242-9.918-3.61c2.039-1.168,3.894-2.472,5.855-3.703
		c0.27-0.171,0.539-0.339,0.805-0.511c4.07-2.586,7.902-5.258,11.543-8.051c0.187-0.144,0.371-0.285,0.554-0.43
		c1.805-1.398,3.746-2.75,5.422-4.176c9.547-8.152,16.566-16.48,21.836-24.574c1.066-1.578,2.172-3.145,3.133-4.746
		c-0.062,0.019-0.113,0.035-0.175,0.054c0.038-0.07,0.09-0.136,0.129-0.206c-6.512,2.031-13.512,4.062-21.07,5.812h-0.07
		c-3.57,4.34-7.84,8.68-12.882,13.02c-8.75,7.488-19.528,14.488-31.078,20.441c-11.622-5.882-22.402-12.953-31.153-20.441
		c-5.39-4.622-9.87-9.242-13.582-13.863c-5.45-1.36-10.531-2.832-15.422-4.309c-1.833-0.59-3.563-1.102-5.512-1.786
		c0.031,0.047,0.066,0.094,0.094,0.145c-0.074-0.023-0.156-0.047-0.23-0.07c5.531,9.871,13.652,20.371,25.55,30.523
		c5.899,5.07,12.719,9.966,20.07,14.442c1.34,0.856,2.676,1.715,4.039,2.539c-16.75,6.594-34.062,10.348-48.742,9.485
		c-0.234-0.016-0.468-0.035-0.702-0.051c-4.782-0.332-9.286-1.145-13.375-2.543c-0.859-0.289-1.637-0.652-2.446-0.984
		c-1.218-0.504-2.386-1.054-3.496-1.66c-1.386-0.754-2.687-1.59-3.902-2.504c-1.102-0.828-2.137-1.726-3.102-2.691
		c-1.004-1.004-1.934-2.082-2.789-3.234c-0.813-1.094-1.551-2.254-2.23-3.481c-0.774-1.402-1.461-2.89-2.062-4.465
		c-0.454-1.18-0.852-2.414-1.211-3.691c-0.254-0.914-0.535-1.805-0.742-2.77c-2.238-10.59,2.02-21.543,8.457-31.418
		c0.977-1.457,2-2.922,3.13-4.406c-0.024-0.007-0.043-0.007-0.066-0.015c0.035-0.047,0.066-0.094,0.102-0.145
		c-3.5-0.77-6.653-1.258-9.313-1.258c-0.77,0-1.469,0.07-2.238,0.141c-1.82,0.207-3.5,0.558-5.11,0.98
		c-7.14,11.758-11.621,25.199-8.683,38.989c3.781,17.851,14.562,30.312,31.152,35.914c6.863,2.309,14.493,3.36,22.614,3.36
		c19.18,0,40.949-6.02,60.832-15.192c19.949,9.172,41.652,15.192,60.902,15.192c8.05,0,15.679-1.051,22.539-3.36
		c16.59-5.602,27.371-18.062,31.152-35.914c3.012-14.07-1.679-27.719-9.102-39.692C359.535,376.402,358.902,376.336,358.274,376.266
		z"></path>
	<path class="st0" d="M371.086,338.465c-2.449-3.641-4.762-7.074-6.93-10.363c-2.453-3.711-4.762-7.141-6.793-10.359
		c-20.035,3.722-40.379,6.25-60.847,7.66c-5.539,0.343-11.086,0.625-16.637,0.77c18.398-5.45,32.23-17.215,43.316-31.68
		c0.215-0.274,0.43-0.539,0.641-0.817c1.527-2.023,2.992-4.105,4.418-6.222c0.86-1.254,1.723-2.496,2.574-3.809
		c0.07-0.113,0.137-0.226,0.207-0.339c1.707-2.657,3.406-5.371,5.078-8.286c3.094-0.344,6.187-0.687,9.351-1.098
		c0.84-1.683,1.89-3.5,3.078-5.39c1.05-1.68,2.312-3.5,3.71-5.321c0.211-0.281,0.493-0.629,0.77-0.98c0,0,0.07-0.07,0.141-0.141
		c1.61-2.031,3.359-3.992,5.39-5.949c1.192-1.192,2.45-2.313,3.782-3.43c7.07-6.023,16.449-11.48,28.629-14.843
		c-4.129-16.867-10.5-31.219-19.602-43.539c14.914-37.313,38.852-95.766,48.164-106.547l9.43-10.953l2.614-2.973l-0.043-0.015
		l0.11-0.13l-16.871-7.769c-13.718-6.301-27.019-9.45-39.621-9.45c-16.102,0-30.801,5.531-39.34,14.77
		c-0.91,0.981-1.68,2.102-2.313,3.289h-0.07c-24.43,0-33.878,14.633-38.918,25.692l-4.691,10.363l9.168,6.718
		c10.828,7.883,16.262,19.359,17.859,29.562c0.074,0.504,0.195,1.031,0.25,1.531c0.004,0.027,0.004,0.051,0.004,0.078
		c0.149,1.375,0.211,2.707,0.215,3.988c-34.098-17.847-49.695-42.875-56.477-58.473c-0.91-2.168-2.871-3.218-4.832-3.218
		c-1.961,0-3.918,1.05-4.828,3.218c-5.844,13.434-18.297,33.891-43.394,50.715c-0.477,0.316-0.875,0.652-1.36,0.965
		c-0.828,0.539-1.804,1.027-2.66,1.554c-2.926,1.797-5.89,3.582-9.141,5.258c0.238-11.325,5.489-25.758,18.402-35.18l9.238-6.718
		l-4.758-10.363c-4.973-11.059-14.492-25.692-38.851-25.692c-0.07,0-0.07,0-0.141,0c-0.629-1.187-1.398-2.308-2.309-3.289
		c-8.543-9.238-23.242-14.77-39.344-14.77c-12.531,0-25.898,3.149-39.621,9.45L84.078,72l-3.594,1.609l0.028,0.035l-0.149,0.066
		l12.11,14.07c9.312,10.782,33.324,69.375,48.234,106.618c-9.039,12.23-15.371,26.414-19.504,43.129
		c-0.016,0.062-0.039,0.121-0.054,0.187l0,0c-0.012,0.055-0.032,0.102-0.043,0.153c12.179,3.363,21.492,8.82,28.562,14.843
		c1.328,1.118,2.59,2.238,3.778,3.43c2.031,1.957,3.781,3.918,5.39,5.949c0.07,0.07,0.141,0.141,0.141,0.141
		c0.281,0.351,0.558,0.699,0.77,0.98c1.402,1.821,2.66,3.641,3.71,5.321c1.192,1.89,2.242,3.707,3.078,5.39
		c3.222,0.418,6.371,0.77,9.523,1.047c7.074,12.621,15.477,24.418,25.906,33.851c0.016,0.016,0.035,0.031,0.051,0.047
		c2.105,1.902,4.285,3.707,6.566,5.394c0.699,0.523,1.422,0.984,2.133,1.481c1.629,1.129,3.258,2.246,4.98,3.254
		c2.004,1.187,4.07,2.222,6.156,3.214c0.52,0.242,1.004,0.535,1.532,0.77c2.855,1.278,5.773,2.41,8.785,3.344
		c-26.074-1-52.012-3.851-77.461-8.582c-2.102,3.218-4.34,6.648-6.79,10.359c-2.242,3.289-4.55,6.793-7,10.43
		c-5.37,7.984-11.343,16.664-17.734,25.73c-2.941,4.094-5.866,8.226-8.859,12.203c0.082-0.031,0.157-0.066,0.238-0.098
		c-0.058,0.082-0.117,0.164-0.176,0.246c4.547-1.82,8.68-3.777,12.321-5.598c8.258-3.992,15.328-7.351,25.34-8.683
		c1.398-0.137,2.66-0.207,3.988-0.207c1.121,0,2.313,0.07,3.5,0.137c4.832,0.422,10.152,1.614,15.89,3.293
		c1.961,0.558,3.922,1.121,6.024,1.821c2.238,0.699,4.546,1.398,6.93,2.167c3.289,1.051,6.648,2.172,10.218,3.153
		c13.535,4.214,29.383,8.09,47.543,9.23c0.988,0.062,1.988,0.106,2.992,0.152c2.301,0.102,4.488,0.348,6.867,0.348
		c2.547,0,4.91-0.234,7.371-0.351c0.465-0.02,0.934-0.039,1.394-0.063c17.18-0.957,32.363-4.374,45.418-8.266
		c4.758-1.402,9.238-2.87,13.508-4.203c1.262-0.418,2.524-0.839,3.782-1.187c2.382-0.774,4.691-1.473,6.93-2.172
		c5.602-1.679,10.781-2.938,15.543-3.57c2.098-0.351,4.129-0.488,6.09-0.488c1.258,0,2.519,0.07,3.918,0.207
		c10.082,1.332,17.153,4.691,25.344,8.683c2.774,1.336,5.813,2.734,8.992,4.11c1.114,0.527,2.192,1.043,3.34,1.582
		c-0.054-0.07-0.106-0.145-0.156-0.215c0.098,0.039,0.183,0.082,0.281,0.121C387.817,363.035,378.855,350.011,371.086,338.465z
		 M259.782,119.496l3.078,127.262l0.141,6.934c2.66,0,5.32,0.07,7.91,0.207c0.254-0.051,0.504-0.02,0.758,0l0.254,0.054
		c-1.523,2.215-2.98,4.234-4.301,6.035c-7.77,0.211-15.402,0.211-23.171,0c-1.149-1.57-2.438-3.375-3.75-5.266
		c-0.176-0.281-0.348-0.523-0.523-0.824c0.328-0.055,0.656-0.066,0.984,0c2.59-0.137,5.25-0.207,7.84-0.207l0.141-6.934
		l3.148-127.262c0.07-2.102,1.75-3.711,3.852-3.641C258.102,115.855,259.711,117.535,259.782,119.496z M103.149,78.668
		c13.003-6.008,24.335-8.176,33.706-8.176c14.633,0,24.57,5.39,29.051,10.218c0.562,0.633,0.492,1.543,0,2.172
		c-2.168,2.59-4.898,11.27-1.469,13.09c0.558,0.281,1.191,0.422,1.82,0.422c3.848,0,8.122-5.39,7.91-7.633
		c1.61-0.141,3.078-0.211,4.481-0.211c15.328,0,21.558,7.422,26.109,17.504c-18.969,13.859-25.969,36.821-23.66,53.621
		c0.352,2.801,0.981,5.462,1.82,7.84c12.462,33.954,25.27,60.692,36.891,80.294c1.332,2.382,2.73,4.621,4.062,6.789h0.07
		c1.046,1.75,2.098,3.363,3.148,4.902c0.418,0.629,0.84,1.262,1.258,1.89c2.031,2.942,3.922,5.598,5.812,7.981
		c3.149,4.058,6.09,7.347,8.821,10.007c5.25,5.18,9.73,7.774,13.019,7.774c3.359,0,7.77-2.594,13.09-7.774
		c2.73-2.66,5.672-5.949,8.75-10.007c1.89-2.383,3.851-5.039,5.812-7.981c0.489-0.629,0.91-1.262,1.329-1.89
		c1.05-1.539,2.102-3.153,3.152-4.902h0.07c1.328-2.168,2.73-4.406,4.058-6.789c11.622-19.602,24.43-46.34,36.821-80.294
		c0.839-2.378,1.472-5.039,1.82-7.84c2.313-16.8-4.687-39.762-23.66-53.621c4.55-10.082,10.851-17.504,26.179-17.504
		c1.379,0,2.829,0.074,4.344,0.211c0.023,0.004,0.043,0,0.066,0.004c-0.203,2.242,4.133,7.629,7.981,7.629
		c0.562,0,1.191-0.141,1.75-0.422c3.434-1.821,0.703-10.5-1.398-13.09c-0.558-0.629-0.629-1.539-0.07-2.172
		c4.551-4.828,14.422-10.218,29.051-10.218c8.703,0,19.16,2.012,31.066,7.086c0.91,0.402,1.801,0.707,2.714,1.145
		c-10.301,12.031-31.695,63.282-47.851,103.562c-9.59,24.012-17.359,44.031-19.813,49.562c-2.938,6.653-5.878,13.301-9.098,19.883
		c-0.629,1.469-1.332,2.938-2.031,4.41c-0.418,0.769-0.77,1.468-1.121,2.168c0,0.07-0.07,0.07-0.07,0.07
		c-1.118,2.242-2.238,4.481-3.43,6.653c-0.207,0.418-0.418,0.84-0.699,1.258c-1.891,3.57-3.918,7-6.09,10.363
		c-14.07,22.258-32.762,38.922-62.722,38.922c-29.961,0-48.652-16.665-62.722-38.922c-2.168-3.363-4.199-6.793-6.09-10.363
		c-0.281-0.418-0.488-0.84-0.699-1.258c-1.191-2.172-2.308-4.41-3.43-6.653c0,0-0.07,0-0.07-0.07
		c-0.351-0.7-0.699-1.399-1.121-2.168c-0.699-1.473-1.398-2.942-2.031-4.41c-3.219-6.582-6.16-13.23-9.098-19.883
		c-2.454-5.531-10.153-25.55-19.742-49.492c-15.309-38.172-35.305-86.199-46.129-101.375
		C104.262,80.106,103.683,79.324,103.149,78.668z"></path>
	<path class="st0" d="M133.145,325.023c2.312-3.57,4.55-6.93,6.722-10.152c8.61-13.23,14.699-22.962,17.43-27.301
		c-0.98-3.219-3.359-9.379-8.402-15.821c0-0.07-0.137-0.21-0.207-0.347c-1.542-1.961-3.434-4.062-5.531-5.954
		c-0.07-0.14-0.14-0.21-0.21-0.21c-0.207-0.278-0.489-0.489-0.699-0.699c-1.821-1.68-3.922-3.29-6.161-4.758
		c-0.488-0.351-0.91-0.633-1.398-0.91c-4.55-2.871-9.941-5.391-16.382-7.282c-7.488-2.242-16.309-3.57-26.742-3.57
		c-7.347,0-15.328,0.699-23.73,2.031c-22.922,34.207-46.449,73.59-60.711,97.954c-2.496,4.214-4.878,8.262-7.121,12.07h0.094
		c-0.031,0.05-0.066,0.109-0.094,0.16h3.851c15.262,0,34.653,1.89,52.364,13.511c1.886,1.258,3.847,2.59,5.668,4.13
		c1.82,1.468,3.64,3.007,5.39,4.691c0.91,0.84,1.75,1.75,2.59,2.656c1.961,2.031,3.852,4.203,5.672,6.582
		c1.61,2.102,3.148,4.27,4.687,6.652c0.07,0.066,0.07,0.137,0.141,0.207c0.07-0.07,0.141-0.207,0.211-0.278
		c1.961-2.523,3.851-5.043,5.738-7.562c2.102-2.66,4.062-5.32,6.019-7.981c12.602-16.87,24.152-33.25,33.883-47.601
		C128.664,331.672,130.977,328.242,133.145,325.023z"></path>
	<path class="st0" d="M511.817,360.234H512c-12.25-21.282-40.531-69.442-67.832-110.184c-8.398-1.332-16.313-2.031-23.73-2.031
		c-10.43,0-19.25,1.328-26.672,3.57c-6.442,1.89-11.832,4.41-16.379,7.352c-0.422,0.277-0.91,0.558-1.332,0.839
		c-2.238,1.539-4.339,3.149-6.16,4.828c-0.211,0.211-0.488,0.422-0.699,0.63c-0.07,0.07-0.141,0.14-0.211,0.21
		c-2.098,1.961-3.918,3.993-5.527,5.954c-0.07,0.137-0.21,0.277-0.281,0.347c-4.973,6.442-7.352,12.602-8.402,15.821
		c2.66,4.339,8.75,14.07,17.434,27.23c2.098,3.222,4.34,6.652,6.718,10.222c2.168,3.289,4.481,6.719,6.93,10.219
		c9.73,14.351,21.211,30.73,33.813,47.601c1.961,2.661,3.918,5.321,6.019,7.981c1.891,2.519,3.782,5.039,5.738,7.562
		c0.07,0.07,0.141,0.207,0.211,0.278c0.046-0.047,0.07-0.09,0.094-0.137l0.02,0.023l-0.02-0.027
		c0.016-0.023,0.023-0.047,0.047-0.066c1.539-2.382,3.082-4.55,4.691-6.652c1.82-2.379,3.707-4.622,5.668-6.649
		c0.84-0.91,1.68-1.75,2.59-2.59c1.75-1.684,3.57-3.223,5.39-4.691c1.821-1.539,3.782-2.871,5.672-4.13
		c17.711-11.621,37.102-13.511,52.363-13.511h2.458l1.254,0.082C511.848,360.289,511.828,360.258,511.817,360.234z"></path>
</g>
</svg>
