<svg width="320" height="327" viewBox="0 0 320 327" fill="none" xmlns="http://www.w3.org/2000/svg">
<rect x="7" y="7" width="306" height="312.154" stroke="#C3B9A6" stroke-width="14"/>
<path d="M59.6369 51.7015V68.2615C62.7569 67.9015 67.7969 67.6615 71.0369 67.6615H136.437C139.917 67.6615 144.117 67.9015 147.597 68.2615V51.7015C144.237 52.1815 140.037 52.5415 136.437 52.5415H71.0369C67.7969 52.5415 62.7569 52.1815 59.6369 51.7015ZM94.3169 125.622H110.997V60.9415H94.3169V125.622ZM51.9569 115.782V133.062C55.9169 132.702 60.2369 132.582 63.7169 132.582H142.917C145.677 132.582 150.717 132.702 154.077 133.062V115.782C150.957 116.142 147.117 116.742 142.917 116.742H63.7169C60.1169 116.742 55.7969 116.382 51.9569 115.782ZM187.677 95.9815C183.477 106.542 176.397 119.502 168.957 129.222L185.757 136.302C191.997 127.302 199.197 113.742 203.397 102.102C207.597 90.8215 212.037 74.3815 213.597 65.9815C214.197 63.2215 215.517 57.3415 216.477 53.9815L199.077 50.3815C197.517 65.6215 192.957 82.5415 187.677 95.9815ZM246.837 93.4615C251.637 106.422 256.077 121.542 259.437 135.822L277.077 130.062C273.837 118.182 267.477 98.9815 263.157 88.1815C258.597 76.5415 250.437 58.0615 245.397 48.8215L229.437 53.9815C234.597 63.1015 242.277 80.8615 246.837 93.4615ZM103.317 276.822L113.397 285.102C114.597 284.262 116.037 282.942 118.557 281.622C132.117 274.782 149.277 261.822 159.237 248.862L150.117 235.542C141.957 247.182 130.197 256.662 120.357 260.862C120.357 253.542 120.357 207.822 120.357 198.222C120.357 192.822 121.197 188.022 121.197 187.782H103.437C103.437 188.022 104.277 192.702 104.277 198.102C104.277 207.822 104.277 261.702 104.277 268.062C104.277 271.302 103.917 274.542 103.317 276.822ZM47.7569 275.142L62.3969 284.862C72.7169 275.742 80.1569 263.862 83.8769 250.422C86.9969 238.302 87.3569 212.982 87.3569 198.702C87.3569 193.782 88.1969 188.382 88.1969 187.902H70.5569C71.2769 190.902 71.7569 194.022 71.7569 198.942C71.7569 213.342 71.6369 236.142 68.1569 246.342C64.9169 256.662 58.4369 267.702 47.7569 275.142ZM251.637 182.262L242.157 186.222C245.397 190.902 248.997 197.982 251.517 202.902L261.117 198.702C258.837 194.262 254.637 186.702 251.637 182.262ZM265.797 176.862L256.317 180.822C259.557 185.382 263.517 192.342 265.917 197.382L275.517 193.182C273.357 188.982 268.917 181.422 265.797 176.862ZM199.797 187.542H182.157C182.637 191.142 182.997 197.262 182.997 200.022C182.997 207.462 182.997 251.502 182.997 265.302C182.997 275.742 189.117 281.382 199.437 283.302C204.597 284.142 211.917 284.622 219.717 284.622C232.917 284.622 251.037 283.902 262.437 282.222V264.702C252.477 267.342 233.157 268.782 220.557 268.782C215.277 268.782 210.357 268.662 206.757 268.062C201.357 267.102 198.957 265.782 198.957 260.502C198.957 251.502 198.957 207.342 198.957 200.022C198.957 196.542 199.317 191.142 199.797 187.542ZM191.877 224.382L191.997 240.102C208.317 236.262 231.837 229.182 245.997 223.782C249.957 222.222 255.357 219.942 259.917 218.022L253.557 202.902C248.757 205.662 244.677 207.582 240.477 209.382C227.877 214.542 207.357 221.022 191.877 224.382Z" fill="white"/>
</svg>
