<!--?xml version="1.0" encoding="utf-8"?-->
<!-- Generator: Adobe Illustrator 19.1.1, SVG Export Plug-In . SVG Version: 6.00 Build 0)  -->
<svg version="1.1" id="_x31_0" xmlns="http://www.w3.org/2000/svg" xmlns:xlink="http://www.w3.org/1999/xlink" x="0px" y="0px" viewBox="0 0 512 512" style="width: 256px; height: 256px; opacity: 1;" xml:space="preserve">
<style type="text/css">
	.st0{fill:#374149;}
</style>
<g>
	<path class="st0" d="M400.802,70.202c-2.402-0.234-4.883-0.321-7.442-0.555c-6.48-0.562-16.078-0.726-29.601-0.726
		c-15.762,0-35.574,0.313-57.449,0.871c-3.05,0.054-6.148,0.113-9.289,0.172l0.039,0.074c-0.058,0.004-0.118,0.004-0.18,0.008
		l10.16,18l10.082,17.922l37.437,66.234l0.242,36.242l0.238,36.32v4.476l0.082,18.164l0.074,17.281l-0.004,0.719
		c0.004,0,0.004-0.004,0.004-0.004l0.004,0.16c32.96-1.438,63.198-3.274,85.921-5.515c7.074-0.688,13.886-2.371,20.285-4.844
		c1.046-0.375,2.102-0.73,3.137-1.149c-1.082,6.969-3.922,14.59-6.954,18.539c-0.351,0.422-0.707,0.828-1.062,1.141
		c0.023,0.004,0.035,0.023,0.058,0.031c-0.035,0.031-0.07,0.086-0.105,0.117c8.16,2.641,6.48,20.882-2,24.641
		c6.238,9.445-4.481,22.562-17.122,27.445c1.762,10-9.198,19.359-19.038,19.359c-0.617,0-1.234-0.074-1.851-0.141
		c-0.047-0.016-0.106-0.004-0.149-0.023c0,0,0,0.007,0,0.015c-0.054-0.008-0.106-0.008-0.16-0.015
		c0.078,10.718-9.84,15.437-20.801,15.437c-3.281,0-6.64-0.398-9.839-1.195c-1.122,4.398-9.359,12.718-18.558,12.718
		c-3.122,0-6.375-1.023-9.516-3.339c-0.187-0.157-0.394-0.27-0.578-0.434c-0.004,0.007-0.012,0.015-0.016,0.027
		c-0.043-0.035-0.09-0.055-0.133-0.09c-0.238,0.555-0.558,1.039-0.879,1.594c-2.32,3.523-5.839,6.32-10.8,7.601
		c-0.793,0.192-1.653,0.332-2.52,0.462c-0.465,0.07-0.926,0.121-1.39,0.168c-0.91,0.09-1.824,0.175-2.809,0.175
		c-3.019,0-6.422-0.473-10.144-1.426c-0.352-0.106-0.703-0.141-1.054-0.262c0,0.012-0.008,0.023-0.008,0.035
		c-0.055-0.016-0.098-0.02-0.153-0.035c0,1.281-0.801,2.406-2.16,3.446c-3.199,2.398-9.602,3.999-16.722,3.999
		c-4.828,0-9.972-0.816-14.706-2.562c-0.782-0.312-1.562-0.554-2.332-0.941c-0.004,0.015-0.012,0.027-0.012,0.038
		c-0.047-0.023-0.102-0.034-0.149-0.058c-0.398,3.446-5.758,5.602-13.758,5.602c-7.281,0-16.64-1.758-26.48-6.078
		c-1.281-0.485-2.562-1.126-3.839-1.758c-0.161-0.086-0.321-0.164-0.402-0.242c-2.641,3.922-6.078,5.835-10.238,6.476
		c-0.961,0.164-2,0.242-3.121,0.242c-6.078,0-13.758-2.32-23.121-6.164c-3.52,4.32-11.039,8.086-20,8.086
		c-5.117,0-10.718-1.203-16.078-4.32c-1.199,2.32-7.122,4.234-13.84,4.234c-5.922,0-12.48-1.438-17.281-5.118
		c-2.16,0.485-4.238,0.641-6.398,0.641c-12.766,0-22.578-8.234-24.652-21.324c-0.172-1.222-0.367-2.434-0.39-3.738
		c-0.016,0.012-0.043,0.008-0.059,0.016c-0.004-0.054-0.015-0.102-0.019-0.156c-0.355,0.195-0.77,0.301-1.172,0.422
		c-0.355,0.11-0.726,0.191-1.125,0.25c-0.43,0.062-0.859,0.133-1.301,0.133c-7.281,0-16.801-7.844-17.121-18.485
		c-0.16,0-0.481,0.086-0.722,0.086c-6.446,0-21.606-11.106-20.457-29.621c0.09-1.191,0.203-2.394,0.445-3.66
		c0,0-0.004-0.004-0.007-0.004c0.011-0.054,0.011-0.106,0.019-0.16c-2.477-0.157-4.797-1.039-6.797-2.719
		c-8.641-6.476-12.242-23.999-5.84-34.64c-3.156-3.34-4.73-7.39-5.351-11.66c-0.133-1.106-0.246-2.222-0.246-3.418
		c14.383,7.578,30.508,13.086,45.914,15.797c7.121,1.359,14.082,2,20.722,2c11.023,0,58.03-0.395,114.803-1.75
		c0.023,0,0.046,0,0.074,0l0,0c0.054-0.004,0.105-0.004,0.16-0.008l-0.398-18.156l-0.481-18.086l-0.16-7.273l-0.879-36.32
		l-0.562-19.68l-48.479-78.725l-21.598-35.039c-8.402,0.485-16.402,0.962-23.84,1.524c-17.198,1.195-31.679,2.562-41.678,3.836
		c-2.563,0.32-5.762,0.726-9.442,1.359c-26.16,4-75.839,16.086-83.761,63.046c-1.359,8.078-1.839,18.078-1.918,28.398
		c-0.082,12,0.558,24.234,1.359,33.835c0.481,5.039,0.879,9.282,1.359,12.484c1.442,10,6.961,19.602,15.359,28.398
		c-2.758,10.57-3.75,22.133-1.949,33.312c0.094,0.594,0.21,1.187,0.324,1.782c0.285,1.5,0.43,3.027,0.828,4.507
		c0.238,1.195,0.558,2.398,0.957,3.516c-2.078,13.843,0.402,28.718,7.282,41.601c0.878,1.68,1.84,3.281,2.878,4.797
		c0.696,1.058,1.551,1.938,2.297,2.93c0.524,0.703,1.066,1.398,1.622,2.07c0.738,0.898,1.367,1.91,2.164,2.766
		c2.32,10.156,7.039,19.679,14,27.999c3.918,4.641,8.398,8.719,13.198,11.922c5.039,8.875,12.481,16.313,21.282,21.195
		c10.32,18.484,29.679,30.718,52.475,30.961c7.524,2.961,15.922,4.477,24.562,4.477c5.199,0,10.238-0.555,14.801-1.516
		c4.957,1.039,10,1.68,15.117,1.68c8.402,0,16.722-1.602,24.242-4.641c6.16,1.602,12.481,2.641,18.879,2.641
		c6.082,0,11.839-0.883,17.198-2.641c9.122,2.641,18.242,4,26.882,4c7.52,0,14.16-0.961,19.84-2.797
		c3.598,0.398,7.359,0.718,11.117,0.718c11.68,0,21.442-2.164,29.281-5.766h0.961c9.84,0,19.039-2.156,27.039-6.234
		c0.558,0.078,1.039,0.078,1.602,0.078c12.64,0,24.32-4.718,33.518-11.679c14.958-1.118,28.238-6.797,37.679-16.32
		c1.36-1.282,2.641-2.719,3.84-4.242c7.438-3.602,14.238-8.718,19.602-15.195c3.117-3.68,5.679-7.679,7.598-11.843
		c10-7.922,17.519-18.321,21.121-29.515c1.039-3.524,1.84-7.126,2.078-10.641c4.16-8.32,6.16-17.922,5.68-27.766
		c-0.16-2.718-0.398-5.359-1.039-7.914c4.398-13.359,5.762-28.32,2-40.406c-0.558-1.758-1.282-3.516-2.078-5.118
		c9.52-13.038,15.039-28.96,15.039-45.835V200.2c-0.082-18.078-0.242-51.835-16.641-76.718
		C463.36,74.444,428.72,72.124,400.802,70.202z"></path>
	<path class="st0" d="M196.242,92.365l10.801,17.602l45.359,73.593l0.64,25.843l0.879,36.398l0.242,6.962l0.398,18.078l0.48,18.164
		l2.16,102.233v1.046c6.559,1.914,12.558-4.242,17.68-4.242c8,0,13.359,4.874,13.762,1.438c5.359,2.484,11.519,3.523,17.198,3.523
		c7.122,0,13.52-1.602,16.719-4c1.359-1.039,2.16-2.164,2.16-3.446c3.152,0.883,5.996,1.321,8.546,1.52
		c0.184,0.023,0.39,0.066,0.574,0.09v-0.023c0.05,0,0.11,0.015,0.16,0.015l-0.082-3.195l-0.399-97.444l-0.16-18.234l-0.078-18.086
		l-0.082-5.195l-0.238-36.406l-0.082-30.632L292.483,106.6l-10.082-17.758l-10.16-18l-0.238-0.398l-21.199,1.203l-1.519,0.078
		l-43.343,2.508l-20.042,1.086l0.043,0.074l-0.18,0.011L196.242,92.365z M275.198,107.084c-2.613,0.082-5.308,0.242-8.074,0.321
		c-10.813-4.43-21.59-8.274-32.312-11.879c-1.801-0.617-3.676-1.23-5.52-1.843c-2.343-0.766-4.714-1.626-7.05-2.356l-0.16-0.164
		l-1.852-3.07l-0.641-1.176l41.133-4.394l4,6.882l7.16,11.98L275.198,107.084z"></path>
</g>
</svg>
