<svg width="104" height="106" viewBox="0 0 104 106" fill="none" xmlns="http://www.w3.org/2000/svg">
<rect x="3" y="3" width="98" height="100" stroke="#ED3C1F" stroke-width="6"/>
<path d="M16.52 13.08V18.6C17.56 18.48 19.24 18.4 20.32 18.4H42.12C43.28 18.4 44.68 18.48 45.84 18.6V13.08C44.72 13.24 43.32 13.36 42.12 13.36H20.32C19.24 13.36 17.56 13.24 16.52 13.08ZM28.08 37.72H33.64V16.16H28.08V37.72ZM13.96 34.44V40.2C15.28 40.08 16.72 40.04 17.88 40.04H44.28C45.2 40.04 46.88 40.08 48 40.2V34.44C46.96 34.56 45.68 34.76 44.28 34.76H17.88C16.68 34.76 15.24 34.64 13.96 34.44ZM59.2 27.84C57.8 31.36 55.44 35.68 52.96 38.92L58.56 41.28C60.64 38.28 63.04 33.76 64.44 29.88C65.84 26.12 67.32 20.64 67.84 17.84C68.04 16.92 68.48 14.96 68.8 13.84L63 12.64C62.48 17.72 60.96 23.36 59.2 27.84ZM78.92 27C80.52 31.32 82 36.36 83.12 41.12L89 39.2C87.92 35.24 85.8 28.84 84.36 25.24C82.84 21.36 80.12 15.2 78.44 12.12L73.12 13.84C74.84 16.88 77.4 22.8 78.92 27ZM31.08 88.12L34.44 90.88C34.84 90.6 35.32 90.16 36.16 89.72C40.68 87.44 46.4 83.12 49.72 78.8L46.68 74.36C43.96 78.24 40.04 81.4 36.76 82.8C36.76 80.36 36.76 65.12 36.76 61.92C36.76 60.12 37.04 58.52 37.04 58.44H31.12C31.12 58.52 31.4 60.08 31.4 61.88C31.4 65.12 31.4 83.08 31.4 85.2C31.4 86.28 31.28 87.36 31.08 88.12ZM12.56 87.56L17.44 90.8C20.88 87.76 23.36 83.8 24.6 79.32C25.64 75.28 25.76 66.84 25.76 62.08C25.76 60.44 26.04 58.64 26.04 58.48H20.16C20.4 59.48 20.56 60.52 20.56 62.16C20.56 66.96 20.52 74.56 19.36 77.96C18.28 81.4 16.12 85.08 12.56 87.56ZM80.52 56.6L77.36 57.92C78.44 59.48 79.64 61.84 80.48 63.48L83.68 62.08C82.92 60.6 81.52 58.08 80.52 56.6ZM85.24 54.8L82.08 56.12C83.16 57.64 84.48 59.96 85.28 61.64L88.48 60.24C87.76 58.84 86.28 56.32 85.24 54.8ZM63.24 58.36H57.36C57.52 59.56 57.64 61.6 57.64 62.52C57.64 65 57.64 79.68 57.64 84.28C57.64 87.76 59.68 89.64 63.12 90.28C64.84 90.56 67.28 90.72 69.88 90.72C74.28 90.72 80.32 90.48 84.12 89.92V84.08C80.8 84.96 74.36 85.44 70.16 85.44C68.4 85.44 66.76 85.4 65.56 85.2C63.76 84.88 62.96 84.44 62.96 82.68C62.96 79.68 62.96 64.96 62.96 62.52C62.96 61.36 63.08 59.56 63.24 58.36ZM60.6 70.64L60.64 75.88C66.08 74.6 73.92 72.24 78.64 70.44C79.96 69.92 81.76 69.16 83.28 68.52L81.16 63.48C79.56 64.4 78.2 65.04 76.8 65.64C72.6 67.36 65.76 69.52 60.6 70.64Z" fill="#EAE0CD"/>
</svg>
