<svg width="274" height="122" viewBox="0 0 274 122" fill="none" xmlns="http://www.w3.org/2000/svg">
<g opacity="0.15">
<ellipse cx="197.889" cy="38.5735" rx="43.8758" ry="38.5735" fill="#ED3C1F"/>
<path d="M137 14.3529L255.645 95.0882H18.3545L137 14.3529Z" fill="black"/>
<path d="M136.474 52.0253L125.25 21.3058L147.014 21.0636L136.474 52.0253Z" fill="#EAE0CD"/>
<path d="M111.062 46.817L126.328 20.8533L137.77 32.9565L111.062 46.817Z" fill="#EAE0CD"/>
<path d="M162.74 46.5135L135.302 33.0264L146.439 20.613L162.74 46.5135Z" fill="#EAE0CD"/>
<path d="M137 12.5588L151.734 24.6691H122.266L137 12.5588Z" fill="#EAE0CD"/>
<path d="M119.579 34.9991L129.408 18.1132L100.487 39.0323L119.579 34.9991Z" fill="#EAE0CD"/>
<path d="M153.138 33.9767L142.47 17.9134L171.974 37.9992L153.138 33.9767Z" fill="#EAE0CD"/>
</g>
</svg>
