<!--?xml version="1.0" encoding="utf-8"?-->
<!-- Generator: Adobe Illustrator 18.1.1, SVG Export Plug-In . SVG Version: 6.00 Build 0)  -->

<svg version="1.1" id="_x31_0" xmlns="http://www.w3.org/2000/svg" xmlns:xlink="http://www.w3.org/1999/xlink" x="0px" y="0px" viewBox="0 0 512 512" style="width: 256px; height: 256px; opacity: 1;" xml:space="preserve">
<style type="text/css">
	.st0{fill:#374149;}
</style>
<g>
	<path class="st0" d="M477.811,74.558c-27.918-25.336-150.727-49.266-221.813-49.266c-71.086,0-193.891,23.93-221.813,49.266
		c-39.469,35.821-33.918,90.555-33.918,90.555l40.344,38.422l90.293-34.582c6.555-1.918-0.633-46.332-5.121-61.73
		c-2.156-7.394,17.43-13.629,40.836-18.254c42.074-8.313,136.684-8.313,178.758,0c23.41,4.625,42.992,10.859,40.839,18.254
		c-4.492,15.398-11.679,59.813-5.125,61.73l90.297,34.582l40.344-38.422C511.733,165.114,517.28,110.379,477.811,74.558z"></path>
	<path class="st0" d="M440.647,405.336h-0.215c0-28.77,0-69.16,0-99.722c0-51.614-97.418-82.86-103.824-107.645
		c-0.035-0.129-0.051-0.258-0.078-0.386c-0.156-0.711-0.266-1.418-0.266-2.118c0-15.371,0-49.523,0-49.523h-16.422v-23.906H285.69
		v23.906h-29.691h-29.691v-23.676l0.003-0.074h-0.003v-0.156h-34.153v23.906h-16.418c0,0,0,34.152,0,49.523
		c0,0.691-0.114,1.394-0.266,2.098c-0.028,0.141-0.047,0.278-0.082,0.418c-6.43,24.781-103.824,56.027-103.824,107.633
		c0,13.054,0,27.91,0,42.879l-0.211,56.843l0,0c-9.954,0-18.02,8.066-18.02,18.02c0,9.953,8.066,18.019,18.02,18.019h0.211h184.434
		h184.434h0.215c9.953,0,18.019-8.066,18.019-18.019C458.667,413.402,450.6,405.336,440.647,405.336z M333.515,355.098
		l-37.43-26.918c5.149-7.676,8.157-16.902,8.157-26.836c0-26.645-21.598-48.242-48.242-48.242s-48.242,21.598-48.242,48.242
		s21.598,48.242,48.242,48.242c11.328,0,21.718-3.93,29.953-10.465l26.954,37.473c-15.821,11.98-35.531,19.098-56.906,19.098
		c-52.11,0-94.352-42.242-94.352-94.348c0-52.11,42.242-94.352,94.352-94.352s94.351,42.242,94.351,94.352
		c0,19.621-6.031,37.809-16.281,52.902C333.878,354.527,333.71,354.821,333.515,355.098z"></path>
	<rect x="86.667" y="457.379" class="st0" width="338.668" height="29.328"></rect>
</g>
</svg>
