<svg width="97" height="133" viewBox="0 0 97 133" fill="none" xmlns="http://www.w3.org/2000/svg">
<path d="M0 107.321L0.807296 106.195L38.8928 33.9467L38.9735 33.1821L22.1865 1.64999C21.8791 1.07337 21.3983 0.607986 20.8119 0.319673C20.2256 0.0313592 19.5634 -0.0652858 18.9191 0.0434099C18.2748 0.152106 17.681 0.460639 17.2217 0.92536C16.7624 1.39008 16.4608 1.98746 16.3597 2.63299L0 107.321Z" fill="#FFC24A"/>
<path d="M0.475342 106.466L1.08319 105.279L38.7745 33.7805L22.0302 2.12487C21.7541 1.57435 21.307 1.12812 20.756 0.853038C20.2049 0.577954 19.5796 0.48882 18.9736 0.598993C18.3677 0.709166 17.8137 1.01271 17.3948 1.46416C16.9759 1.9156 16.7145 2.49064 16.6498 3.10312L0.475342 106.466Z" fill="#FFA712"/>
<path d="M51.2108 57.0306L63.7096 44.2089L51.206 20.3651C50.9308 19.8519 50.5216 19.423 50.022 19.124C49.5223 18.825 48.9509 18.667 48.3686 18.667C47.7863 18.667 47.2149 18.825 46.7153 19.124C46.2156 19.423 45.8064 19.8519 45.5312 20.3651L38.8496 33.1014V34.1889L51.2108 57.0306Z" fill="#F4BD62"/>
<path d="M50.9881 56.5083L63.1403 44.0664L50.9881 20.8922C50.7892 20.3906 50.4495 19.9572 50.0098 19.6443C49.5702 19.3314 49.0494 19.1524 48.5103 19.1288C47.9712 19.1052 47.4368 19.238 46.9715 19.5113C46.5062 19.7846 46.1299 20.1867 45.8879 20.669L39.1731 33.6285L38.9736 34.2886L50.9881 56.5083Z" fill="#FFA50E"/>
<path d="M0.00927734 107.325L0.374937 106.955L1.69985 106.418L50.4227 57.8759L51.04 56.1948L38.8878 33.0301L0.00927734 107.325Z" fill="#F6820C"/>
<path d="M52.7688 131.805L96.8758 107.211L84.2724 29.6585C84.1821 29.1118 83.9429 28.6005 83.581 28.1809C83.2191 27.7612 82.7486 27.4494 82.2212 27.2796C81.6937 27.1099 81.1296 27.0887 80.5909 27.2185C80.0522 27.3483 79.5597 27.624 79.1675 28.0154L0 107.321L43.8458 131.801C45.2089 132.561 46.7439 132.961 48.3049 132.961C49.8659 132.961 51.4009 132.561 52.7641 131.801" fill="#FDE068"/>
<path d="M96.4726 107.007L83.9737 30.0384C83.9516 29.5155 83.775 29.0109 83.466 28.5884C83.157 28.166 82.7297 27.8447 82.238 27.6652C81.7464 27.4857 81.2125 27.4562 80.7041 27.5802C80.1956 27.7042 79.7354 27.9763 79.3816 28.3621L0.475342 107.173L43.8368 131.392C45.189 132.147 46.7118 132.543 48.2603 132.543C49.8088 132.543 51.3315 132.147 52.6838 131.392L96.4726 107.007Z" fill="#FCCA3F"/>
<path d="M52.7688 131.065C51.4057 131.825 49.8707 132.225 48.3097 132.225C46.7487 132.225 45.2137 131.825 43.8505 131.065L0.360909 106.95L0 107.321L43.8458 131.801C45.2089 132.561 46.7439 132.961 48.3049 132.961C49.8659 132.961 51.4009 132.561 52.7641 131.801L96.8758 107.211L96.7666 106.547L52.7688 131.065Z" fill="#EEAB37"/>
</svg>
