<svg width="117" height="110" viewBox="0 0 117 110" fill="none" xmlns="http://www.w3.org/2000/svg">
<path d="M114.423 49.7849L63.5038 2.06173C60.5735 -0.687243 55.8172 -0.687243 52.8831 2.06173L42.3097 11.9722L55.7225 24.544C58.8396 23.557 62.4136 24.219 64.8986 26.5482C67.3951 28.8918 68.0963 32.2704 67.0176 35.2017L79.9441 47.3178C83.0715 46.3079 86.68 46.9616 89.1777 49.3064C92.6685 52.5771 92.6685 57.8783 89.1777 61.1514C85.6857 64.4245 80.0299 64.4245 76.5365 61.1514C73.9108 58.6879 73.262 55.073 74.5916 52.041L62.5364 40.7416L62.5351 70.4766C63.3861 70.8724 64.1897 71.3989 64.8986 72.061C68.3893 75.3317 68.3893 80.6329 64.8986 83.9084C61.4065 87.1803 55.7481 87.1803 52.2612 83.9084C48.7705 80.6329 48.7705 75.3317 52.2612 72.061C53.1237 71.2538 54.1217 70.6433 55.1864 70.2331V40.2211C54.1217 39.8133 53.1249 39.2064 52.2612 38.3932C49.6163 35.9177 48.9803 32.28 50.3354 29.236L37.1146 16.8416L2.2006 49.5642C-0.733532 52.3156 -0.733532 56.7737 2.2006 59.5227L53.1198 107.247C56.0514 109.996 60.8064 109.996 63.7418 107.247L114.423 59.7446C117.356 56.9944 117.356 52.5339 114.423 49.7849Z" fill="#DE4C36"/>
</svg>
