<svg width="100" height="132" viewBox="0 0 100 132" fill="none" xmlns="http://www.w3.org/2000/svg">
<path d="M99.5524 25.8838L90.4829 121.115L49.7153 131.709L9.05988 121.13L0 25.8838H99.5524Z" fill="#E44D26"/>
<path d="M49.7761 123.611L82.7184 115.051L90.4689 33.6716H49.7761V123.611Z" fill="#F16529"/>
<path d="M32.1456 57.035H49.7762V45.3533H18.5251L18.8235 48.4873L21.8866 80.6785H49.7762V68.997H33.2845L32.1456 57.035Z" fill="#EBEBEB"/>
<path d="M34.9542 86.5194H22.4434L24.1894 104.861L49.7188 111.504L49.7761 111.489V99.3353L49.7215 99.3489L35.8415 95.836L34.9542 86.5194Z" fill="#EBEBEB"/>
<path d="M9.26221 0H15.5957V5.86515H21.3893V0H27.7231V17.7611H21.3896V11.8136H15.596V17.7611H9.26248V0H9.26221Z" fill="black"/>
<path d="M36.052 5.88984H30.4763V0H47.9643V5.88984H42.3861V17.7611H36.0523V5.88984H36.052Z" fill="black"/>
<path d="M50.7397 0H57.3438L61.4063 6.24072L65.4646 0H72.0711V17.7611H65.7637V8.95773L61.4063 15.2728H61.2973L56.9368 8.95773V17.7611H50.7397V0Z" fill="black"/>
<path d="M75.2231 0H81.5586V11.8903H90.4653V17.7611H75.2231V0Z" fill="black"/>
<path d="M49.7329 80.6785H65.0796L63.633 95.8286L49.7329 99.3451V111.498L75.2826 104.861L75.47 102.888L78.3987 72.1339L78.7028 68.9971H49.7329V80.6785Z" fill="white"/>
<path d="M49.7329 57.0064V57.035H79.8368L80.0868 54.4093L80.6547 48.4873L80.9527 45.3533H49.7329V57.0064Z" fill="white"/>
</svg>
