<svg width="143" height="96" viewBox="0 0 143 96" fill="none" xmlns="http://www.w3.org/2000/svg">
<path d="M122.455 55.2335C117.989 55.2388 113.583 56.1588 109.57 57.9241C108.313 56.0455 107.343 54.0232 106.685 51.9115C106.307 50.2562 106.22 48.5578 106.426 46.8781C106.86 45.0299 107.423 43.2081 108.112 41.4238C108.087 41.1904 107.802 40.0877 104.943 40.051C102.083 40.0144 99.6201 40.5407 99.3559 41.2225C98.8593 42.4678 98.4605 43.743 98.1624 45.0387C95.7958 50.2986 92.8827 55.3452 89.462 60.1113C87.5454 57.2807 86.7572 53.9462 87.2272 50.6577C87.6613 48.8095 88.2245 46.9877 88.9134 45.2034C88.888 44.97 88.6036 43.8673 85.7441 43.8307C82.8846 43.794 80.4212 44.3203 80.1571 45.0021C79.893 45.6838 79.5578 47.2899 78.9636 48.8183C78.3693 50.3466 71.4313 64.3119 69.613 67.913C68.6785 69.7433 67.8709 71.235 67.302 72.2417C67.2751 72.3071 67.2411 72.3699 67.2005 72.4293C66.6926 73.2941 66.4234 73.7654 66.4234 73.7654V73.7883C66.0323 74.4198 65.6158 75.0055 65.4076 75.0055C65.0443 73.6982 65.0618 72.3286 65.4584 71.0291C66.4742 66.1834 68.9629 58.6516 68.9375 58.3908C68.9375 58.249 69.4048 56.9403 67.3274 56.2631C66.8456 56.0565 66.3046 55.9896 65.7789 56.0715C65.2531 56.1535 64.7685 56.3803 64.3918 56.7206C64.2089 56.7206 64.0819 57.1187 64.0819 57.1187C64.0819 57.1187 66.3421 48.649 59.7698 48.649C57.2104 49.1128 54.7799 50.033 52.621 51.3555C50.4622 52.6781 48.6188 54.3762 47.1992 56.35C45.4317 57.2148 41.6681 59.0634 37.6404 61.0539C36.1167 61.8272 34.5218 62.6005 33.0438 63.3418C32.9423 63.2503 32.8356 63.1313 32.734 63.0398C24.7345 55.3616 10.0307 49.9439 10.6655 39.6713C10.8992 35.9283 12.3264 26.0995 38.9 14.1612C60.7704 4.45143 78.1763 7.14199 81.1882 13.1088C85.5003 21.6289 71.863 37.4474 49.2663 39.7399C46.7665 40.1968 44.1846 40.1417 41.7115 39.5785C39.2385 39.0154 36.9376 37.9587 34.979 36.4865C33.7854 35.3151 33.6025 35.2465 33.1607 35.4798C32.4344 35.8322 32.9016 36.8846 33.1607 37.4932C34.0227 38.8986 35.1887 40.1342 36.5897 41.1268C37.9907 42.1194 39.5983 42.849 41.3176 43.2724C50.2071 45.0031 59.4754 44.1756 67.815 40.9067C81.5285 36.1342 92.1945 22.8644 89.0658 11.7498C85.9219 0.470497 65.1435 -3.24962 45.4774 3.05582C33.1594 6.79 21.7776 12.6718 11.981 20.366C1.14739 29.4947 -0.564249 37.4245 0.13666 40.7511C2.67619 52.5475 20.7119 60.2211 27.9292 65.918C27.5635 66.1056 27.2283 66.2703 26.9439 66.4076C23.3327 68.0228 9.56846 74.5067 6.11978 81.3613C2.22415 89.1401 6.74451 94.6997 9.73099 95.4501C14.2311 96.4206 18.9552 96.1009 23.2439 94.5357C27.5325 92.9705 31.1717 90.238 33.6533 86.7195C35.7665 83.8011 37.0655 80.4658 37.4396 76.9977C37.8136 73.5296 37.2518 70.0314 35.8018 66.8011C35.7773 66.7489 35.7429 66.7009 35.7002 66.6592L38.5292 65.163C40.3729 64.1792 42.1912 63.2686 43.7505 62.5182C42.6931 65.2657 42.0724 68.1341 41.9068 71.0383C41.5478 75.4895 43.0598 79.8995 46.1427 83.3929C46.6118 83.7567 47.1564 84.033 47.7449 84.2058C48.3334 84.3786 48.9541 84.4445 49.5711 84.3996C52.6185 84.3996 54.0152 82.1117 55.544 79.3937C57.4131 76.0716 59.0994 72.2097 59.0994 72.2097C59.0994 72.2097 56.9967 82.647 62.7106 82.647C64.7879 82.647 66.8906 80.2127 67.8303 78.9864V79.0093C67.8303 79.0093 67.8811 78.9407 67.9877 78.7759L68.3229 78.2863V78.2406C69.1559 76.9319 71.025 73.9576 73.8032 69.0204C77.389 62.6554 80.8428 54.6981 80.8428 54.6981C81.1759 56.4469 81.6357 58.1741 82.2192 59.8688C83.0558 61.923 84.045 63.9241 85.1803 65.8585C84.3474 66.9109 83.8293 67.4966 83.8293 67.4966L83.8547 67.5195C83.1792 68.3157 82.4529 69.1805 81.6453 70.0225C79.2426 72.4023 77.0133 74.9196 74.9714 77.5588C74.668 78.0021 74.5637 78.5329 74.6798 79.0431C74.7959 79.5532 75.1236 80.0043 75.5961 80.3042C76.6653 80.8055 77.8841 80.9866 79.0753 80.8213C80.8705 80.73 82.6357 80.3665 84.2966 79.746C85.9016 79.2371 87.4158 78.5204 88.7915 77.6183C90.2098 76.7331 91.3513 75.534 92.1065 74.1365C92.8617 72.7389 93.2051 71.1898 93.1036 69.6381C92.9439 67.6835 92.3897 65.7715 91.4682 63.9961C91.7272 63.6667 91.9761 63.3418 92.2199 63.0123C95.1075 59.1293 97.7101 55.0802 100.011 50.8911C100.344 52.6398 100.804 54.3671 101.388 56.0617C102.078 57.8369 102.927 59.5585 103.927 61.2095C100.605 63.5121 97.9885 66.5387 96.3238 70.0041C94.6883 74.2642 95.9581 76.1815 98.3554 76.6253C99.6672 76.7068 100.979 76.4647 102.149 75.9252C103.871 75.4156 105.492 74.6651 106.954 73.7014C108.496 72.8816 109.787 71.7294 110.712 70.3484C111.637 68.9673 112.166 67.4008 112.252 65.7898C112.136 64.1818 111.733 62.601 111.058 61.1088C115.442 59.5659 120.195 59.074 124.853 59.6812C137.215 60.9899 139.658 67.9405 139.191 70.869C138.972 71.9072 138.509 72.891 137.832 73.7545C137.156 74.6179 136.282 75.3409 135.27 75.8749C134.412 76.3645 134.127 76.5292 134.203 76.8816C134.305 77.3986 134.711 77.3712 135.448 77.2796C137.311 76.7579 138.955 75.7396 140.163 74.3591C141.37 72.9786 142.085 71.3006 142.213 69.5466C142.604 62.6829 135.331 55.1557 122.471 55.2244L122.455 55.2335ZM27.0709 84.1891C22.967 88.2158 17.2531 89.7349 14.7846 88.4491C12.1334 87.0764 13.1746 81.1279 18.213 76.8633C21.2018 74.4394 24.4322 72.2689 27.8632 70.3794C28.4625 70.0499 29.3463 69.5832 30.4027 69.0066L30.6872 68.8648L31.3119 68.5125C32.212 71.2295 32.2936 74.1134 31.5484 76.8683C30.8031 79.6232 29.2577 82.1498 27.0709 84.1891ZM56.9408 65.8859C55.5136 69.0204 52.5271 77.0509 50.7088 76.6024C49.1495 76.2272 48.1693 70.1414 50.399 64.1288C51.5247 61.2344 53.1646 58.5239 55.2545 56.1029C57.4893 53.8562 59.9577 53.1058 60.552 54.0209C60.0098 58.1157 58.7927 62.1147 56.9408 65.8859ZM81.5894 76.5109C80.9901 76.79 80.4212 76.9685 80.1622 76.8404C79.9794 76.7489 80.4212 76.3828 80.4212 76.3828C80.4212 76.3828 83.5144 73.3857 84.7334 72.0312C85.4343 71.235 86.2571 70.3016 87.151 69.2446V69.5466C87.151 73.1248 83.3061 75.5363 81.5945 76.5201L81.5894 76.5109ZM100.605 72.6032C100.164 72.3241 100.24 71.386 101.723 68.4621C102.754 66.5843 104.195 64.9129 105.959 63.5477C106.229 64.2404 106.37 64.9687 106.375 65.7029C106.395 67.2657 105.841 68.7906 104.798 70.0396C103.755 71.2886 102.283 72.1916 100.61 72.6078L100.605 72.6032Z" fill="#CD6799"/>
</svg>
