<svg width="120" height="127" viewBox="0 0 120 127" fill="none" xmlns="http://www.w3.org/2000/svg">
<path d="M114.769 28.045L65.5239 1.24351C62.4182 -0.414505 58.3745 -0.414505 55.2442 1.24351L5.47316 28.045C2.26811 29.7732 0 33.0212 0 36.4953V90.0271C0 93.5012 2.3273 96.7502 5.53235 98.4878L18.682 105.488C24.9671 108.39 27.1883 108.39 30.0482 108.39C39.3541 108.39 44.6698 103.115 44.6698 93.9157V41.0663C44.6698 40.32 44.2555 39.2094 43.4737 39.2094H37.1943C36.3992 39.2094 34.6191 40.32 34.6191 41.0653V93.9146C34.6191 97.9927 30.6837 102.051 23.3288 98.604L9.74136 91.2633C9.26786 91.0225 8.93395 90.5379 8.93395 90.0271V36.4953C8.93395 35.9907 9.55375 35.4841 10.0306 35.2256L59.6408 8.47013C60.1043 8.22415 60.7855 8.22415 61.2478 8.47013L110.253 35.2193C110.722 35.4841 110.557 35.975 110.557 36.4953V90.0271C110.557 90.5379 110.761 91.0351 110.297 91.2811L61.0647 118.052C60.6426 118.29 60.1188 118.29 59.6565 118.052L47.0295 110.988C46.6486 110.781 46.1964 110.706 45.8312 110.898C42.3179 112.764 41.6702 113.012 38.3747 114.083C37.5639 114.348 36.3679 114.807 38.8325 116.102L55.3581 125.265C56.9406 126.124 58.7385 126.569 60.5476 126.569C62.3813 126.569 64.1771 126.124 65.7595 125.265L114.768 98.4878C117.973 96.7377 119.492 93.5012 119.492 90.0271V36.4953C119.492 33.0212 117.973 29.7815 114.769 28.045V28.045ZM75.8381 81.5444C62.7432 81.5444 59.8586 78.1582 58.8971 72.0547C58.7854 71.3974 58.1902 70.6113 57.4766 70.6113H51.0765C50.2848 70.6113 49.6482 71.5115 49.6482 72.2505C49.6482 80.0654 54.1811 89.5341 75.8392 89.5341C91.5172 89.5341 100.506 83.8242 100.506 73.719C100.506 63.6997 93.2839 61.0704 78.0794 59.1842C62.7108 57.2802 61.1496 56.3182 61.1496 52.9436C61.1496 50.1613 62.4718 46.4507 73.8514 46.4507C84.0194 46.4507 87.7672 48.496 89.3094 54.9198C89.4412 55.5237 90.0297 55.9571 90.6942 55.9571H97.1199C97.5152 55.9571 97.8927 55.8074 98.1696 55.5426C98.4377 55.2579 98.5795 54.9009 98.5437 54.5178C97.5487 43.456 89.7081 38.3009 73.8503 38.3009C59.7447 38.3009 51.33 43.8841 51.33 53.2429C51.33 63.3941 59.7023 66.1993 73.2428 67.4544C89.4412 68.9428 90.7009 71.1619 90.7009 74.1482C90.7009 79.3347 86.2584 81.5444 75.8381 81.5444Z" fill="#83CD29"/>
</svg>
