<svg width="126" height="126" viewBox="0 0 126 126" fill="none" xmlns="http://www.w3.org/2000/svg">
<path d="M0 109.753C0 118.727 7.27381 126 16.2465 126H109.753C118.727 126 126 118.726 126 109.753V16.2465C126 7.27282 118.726 0 109.753 0H16.2465C7.27282 0 0 7.27381 0 16.2465L0 109.753Z" fill="#563D7C"/>
<path d="M47.775 55.8789V38.0354H63.4816C64.9775 38.0354 66.4199 38.16 67.8089 38.4094C69.198 38.6587 70.4267 39.1039 71.4952 39.7449C72.5637 40.386 73.4184 41.2764 74.0595 42.4161C74.7006 43.5558 75.0211 45.0161 75.0211 46.7969C75.0211 50.0023 74.0595 52.3173 72.1363 53.742C70.213 55.1666 67.7555 55.8789 64.7638 55.8789H47.775ZM31 25V101.289H67.9692C71.3884 101.289 74.7184 100.862 77.9594 100.007C81.2005 99.1521 84.0854 97.8343 86.6141 96.0535C89.1428 94.2727 91.1551 91.9755 92.651 89.1619C94.1468 86.3482 94.8948 83.0182 94.8948 79.1716C94.8948 74.3991 93.7373 70.3211 91.4222 66.9376C89.1072 63.5541 85.5991 61.1857 80.8978 59.8323C84.3169 58.1939 86.899 56.0926 88.6442 53.5283C90.3894 50.9639 91.262 47.7585 91.262 43.912C91.262 40.3504 90.6743 37.3587 89.499 34.9368C88.3236 32.5149 86.6675 30.5739 84.5306 29.1136C82.3936 27.6534 79.8293 26.6027 76.8376 25.9616C73.8458 25.3205 70.5336 25 66.9007 25H31ZM47.775 88.2537V67.3116H66.046C69.6788 67.3116 72.5993 68.1485 74.8075 69.8225C77.0156 71.4964 78.1197 74.2923 78.1197 78.21C78.1197 80.2045 77.7814 81.8428 77.1047 83.125C76.428 84.4072 75.5198 85.4222 74.3801 86.1702C73.2403 86.9181 71.9226 87.4523 70.4267 87.7729C68.9308 88.0934 67.3638 88.2537 65.7254 88.2537H47.775Z" fill="white"/>
</svg>
