<svg width="100" height="132" viewBox="0 0 100 132" fill="none" xmlns="http://www.w3.org/2000/svg">
<path d="M49.7153 131.709L9.05988 121.13L0 25.8838H99.5524L90.4829 121.115L49.7153 131.709Z" fill="#264DE4"/>
<path d="M82.7186 115.051L90.4691 33.6716H49.7764V123.611L82.7186 115.051Z" fill="#2965F1"/>
<path d="M20.7698 68.997L21.8868 80.6785H49.7764V68.997H20.7698Z" fill="#EBEBEB"/>
<path d="M18.5251 45.3533L19.6581 57.0349H49.7762V45.3533H18.5251Z" fill="#EBEBEB"/>
<path d="M49.7764 99.3353L49.7218 99.3489L35.8417 95.836L34.9544 86.5194H22.4436L24.1897 104.861L49.719 111.504L49.7764 111.489V99.3353Z" fill="#EBEBEB"/>
<path d="M23.4292 0H38.524V5.9166H29.7416V11.8332H38.524V17.7498H23.4292V0Z" fill="black"/>
<path d="M41.5427 0H56.6375V5.14487H47.8551V6.17384H56.6375V18.007H41.5427V12.6049H50.3251V11.5759H41.5427V0Z" fill="black"/>
<path d="M59.6565 0H74.7513V5.14487H65.9689V6.17384H74.7513V18.007H59.6565V12.6049H68.4389V11.5759H59.6565V0Z" fill="black"/>
<path d="M78.703 68.997L80.953 45.3533H49.7332V57.0349H67.2947L66.1607 68.997H49.7332V80.6784H65.0799L63.6332 95.8285L49.7332 99.345V111.498L75.2828 104.861L75.4703 102.888L78.3989 72.1338L78.703 68.997Z" fill="white"/>
</svg>
