<svg width="127" height="68" viewBox="0 0 127 68" fill="none" xmlns="http://www.w3.org/2000/svg">
<path d="M46.8885 0.44214V15.0189L15.9943 29.1595L46.8885 43.8063V58.0909L0 35.8461V22.8351L46.8885 0.44214ZM78.7944 13.6385C78.7944 9.91407 75.3699 7.57368 72.6451 9.43589C69.9204 11.2981 69.9204 15.9789 72.6451 17.8411C75.3699 19.7033 78.7944 17.3629 78.7944 13.6385ZM67.6216 25.0817C58.382 20.0166 58.3819 7.28494 67.6216 2.21979C76.8613 -2.84536 88.4736 3.52045 88.4736 13.6508C88.4736 23.7811 76.8613 30.1469 67.6216 25.0817V25.0817ZM117.107 54.7791C117.107 51.0547 113.683 48.7143 110.958 50.5765C108.233 52.4387 108.233 57.1195 110.958 58.9817C113.683 60.8439 117.107 58.5035 117.107 54.7791ZM105.934 66.2223C96.6947 61.1572 96.6947 48.4256 105.934 43.3604C115.174 38.2953 126.786 44.6611 126.786 54.7914C126.786 64.9217 115.174 71.2875 105.934 66.2223V66.2223ZM77.5425 68L125.684 0H109.235L60.2906 68H77.5425Z" fill="black"/>
</svg>
