<svg width="127" height="69" viewBox="0 0 127 69" fill="none" xmlns="http://www.w3.org/2000/svg">
<path d="M126.831 66.4713C122.218 67.5597 119.365 66.5182 116.806 62.9525C111.059 54.9672 104.716 47.3479 98.5958 39.5878C97.8067 38.5838 96.9872 37.5985 95.9655 36.3505C88.722 45.4149 81.4887 54.0476 74.7005 63.0275C72.2725 66.2367 69.7231 67.6348 65.1909 66.4994L92.4247 32.5971L67.0726 1.97904C71.4328 1.19084 74.4476 1.59432 77.1183 5.21632C83.0163 13.211 89.5212 20.8209 96.0059 28.8719C102.531 20.8491 108.955 13.2298 115.025 5.31015C117.463 2.10103 120.083 0.881183 124.464 2.06349C121.146 6.14528 117.898 10.1614 114.631 14.1493C110.22 19.526 105.89 24.9684 101.317 30.2325C99.6884 32.1092 99.9514 33.329 101.408 35.1025C109.866 45.4149 118.222 55.8305 126.831 66.4713Z" fill="black"/>
<path d="M0.0303497 32.0341C0.758742 28.6467 1.24434 25.1936 2.25599 21.8719C8.32592 1.76322 33.2126 -6.5974 50.3096 5.86378C60.325 13.1735 62.8137 23.4765 62.318 35.0931H5.8676C5.01781 55.9337 21.1942 68.5169 41.8117 62.0986C49.045 59.8466 53.3041 54.5919 55.4387 48.0235C56.5212 44.7299 58.3118 44.2138 61.6503 45.1522C59.9406 53.372 56.0659 60.2407 47.9727 64.5383C35.8328 70.9753 18.5032 68.8922 9.38816 59.9498C4.00615 54.6951 1.71981 48.1548 0.708159 41.0891C0.55641 39.9631 0.242797 38.8559 0 37.7393C0.0202331 35.8375 0.0303497 33.9358 0.0303497 32.0341ZM5.96877 30.636H56.9865C56.6527 15.5662 46.5361 4.85975 32.7068 4.76592C17.532 4.65332 6.62634 15.1064 5.96877 30.636Z" fill="black"/>
</svg>
