<svg width="135" height="126" viewBox="0 0 135 126" fill="none" xmlns="http://www.w3.org/2000/svg">
<path d="M0 0H134.428V126H0V0Z" fill="#F7DF1E"/>
<path d="M0 0H134.428V126H0V0Z" fill="#F7DF1E"/>
<path d="M0 0H134.428V126H0V0Z" fill="#F7DF1E"/>
<path d="M35.3462 105.295L45.6335 99.4594C47.6182 102.758 49.4236 105.548 53.7541 105.548C57.9051 105.548 60.5222 104.026 60.5222 98.1062V57.8462H73.155V98.2736C73.155 110.538 65.4854 116.12 54.2956 116.12C44.1898 116.12 38.3236 111.214 35.3459 105.294" fill="black"/>
<path d="M80.0166 104.026L90.3027 98.4438C93.0105 102.589 96.5297 105.633 102.756 105.633C107.99 105.633 111.328 103.18 111.328 99.797C111.328 95.7372 107.899 94.2992 102.124 91.9318L98.9665 90.6622C89.852 87.026 83.806 82.4588 83.806 72.8166C83.806 63.9358 91.0248 57.1692 102.305 57.1692C110.336 57.1692 116.111 59.7914 120.261 66.6424L110.426 72.5626C108.26 68.926 105.914 67.4884 102.305 67.4884C98.6052 67.4884 96.2589 69.6874 96.2589 72.5626C96.2589 76.115 98.6052 77.5532 104.019 79.7524L107.177 81.021C117.915 85.3348 123.961 89.7324 123.961 99.6278C123.961 110.285 115.028 116.121 103.027 116.121C91.296 116.121 83.7159 110.877 80.0168 104.026" fill="black"/>
</svg>
