<svg width="120" height="119" viewBox="0 0 120 119" fill="none" xmlns="http://www.w3.org/2000/svg">
<path fill-rule="evenodd" clip-rule="evenodd" d="M82.9546 94.8327C83.1232 94.5149 83.2849 94.2344 83.4226 93.944C83.5094 93.7582 83.6431 93.7211 83.8317 93.726C84.9623 93.7572 86.0929 93.7915 87.2244 93.8022C88.1854 93.812 89.1483 93.7944 90.1102 93.7836C91.1939 93.7709 92.2776 93.7152 93.3603 93.7455C94.8022 93.7866 96.2072 94.0633 97.5114 94.6919C99.069 95.4437 100.248 96.5886 101.051 98.0971C101.564 99.0602 101.861 100.082 101.98 101.167C102.151 102.739 102.039 104.275 101.53 105.779C100.899 107.642 99.7017 109.069 98.0383 110.137C96.758 110.959 95.354 111.445 93.8492 111.723C92.2566 112.017 90.6591 111.922 89.0615 111.927C87.3092 111.934 85.558 111.897 83.8058 111.877C83.4994 111.875 83.4555 111.818 83.5363 111.531L83.6112 111.267C83.7818 110.741 83.8736 110.718 84.4184 110.63C84.7956 110.57 85.1868 110.432 85.5031 110.226C85.6867 110.107 85.7626 109.796 85.8344 109.556C85.8963 109.347 85.8993 109.118 85.9013 108.897C85.9262 105.548 85.9522 102.2 85.9661 98.8539C85.9691 98.0082 85.9492 97.1605 85.9013 96.3158C85.8673 95.7243 85.545 95.3196 84.8266 95.1798C84.2678 95.0712 83.705 94.9872 83.1432 94.8904L82.9546 94.8327ZM98.9962 102.941C98.9204 102.274 98.8834 101.601 98.7617 100.944C98.4703 99.3672 97.7658 97.9935 96.5285 96.9171C94.5278 95.1778 92.1189 94.9099 89.5944 95.1172C89.0196 95.1641 88.8959 95.3567 88.8869 95.9355C88.8729 96.7568 88.8589 97.578 88.8579 98.3993C88.8539 101.004 88.8539 103.608 88.8579 106.213C88.8589 106.954 88.8669 107.695 88.8889 108.434C88.9128 109.191 89.1932 109.831 89.9496 110.125C91.142 110.587 92.3963 110.642 93.6477 110.453C95.6464 110.153 97.0444 109.012 97.9824 107.302C98.7248 105.945 98.9343 104.464 98.9962 102.941ZM103.855 111.809C103.831 111.403 104 111.068 104.21 110.76C104.267 110.677 104.462 110.681 104.597 110.654L105.741 110.432C106.145 110.348 106.357 110.082 106.414 109.694C106.452 109.438 106.488 109.179 106.491 108.92C106.516 106.87 106.54 104.82 106.55 102.769C106.56 100.716 106.552 98.6632 106.552 96.6101L106.543 96.2181C106.502 95.5581 106.177 95.2159 105.508 95.1191L104.058 94.9031C103.88 94.8796 103.815 94.7955 103.88 94.6401C103.991 94.3751 104.098 94.1004 104.256 93.8619C104.315 93.7739 104.513 93.7396 104.647 93.7426C105.34 93.7524 106.032 93.8032 106.725 93.8022L112.753 93.767C113.914 93.766 115.036 93.9645 116.078 94.5091C117.224 95.1074 117.866 96.0333 118.049 97.2945C118.241 98.6192 117.831 99.7357 116.843 100.622C116.437 100.988 115.911 101.227 115.44 101.524L115.286 101.618C115.723 101.775 116.139 101.911 116.545 102.073C117.73 102.549 118.673 103.294 119.172 104.481C119.566 105.419 119.566 106.397 119.333 107.368C118.969 108.89 117.947 109.902 116.616 110.667C115.368 111.386 114.017 111.804 112.578 111.875C111.251 111.94 109.918 111.916 108.588 111.93L107.817 111.934C106.536 111.906 105.254 111.874 103.972 111.84L103.855 111.809ZM109.38 105.856H109.393C109.393 106.499 109.384 107.143 109.396 107.786C109.404 108.202 109.389 108.631 109.481 109.031C109.618 109.631 109.898 110.171 110.584 110.344C111.511 110.577 112.458 110.624 113.396 110.465C114.571 110.264 115.508 109.688 116.022 108.592C116.403 107.777 116.46 106.914 116.329 106.032C116.155 104.87 115.526 104.028 114.479 103.475C113.792 103.113 113.06 102.891 112.28 102.861C111.406 102.829 110.53 102.827 109.656 102.801C109.411 102.794 109.377 102.916 109.378 103.114C109.383 104.027 109.38 104.941 109.38 105.856ZM111.241 101.481C111.719 101.457 112.26 101.451 112.798 101.398C113.827 101.297 114.553 100.79 114.931 99.8247C115.124 99.3349 115.116 98.8304 115.121 98.321C115.136 96.9943 114.345 95.9072 113.059 95.4574C112.066 95.1103 111.042 95.1045 110.013 95.1319C109.595 95.1426 109.409 95.3215 109.403 95.7331L109.341 101.1C109.338 101.313 109.432 101.405 109.643 101.411L111.241 101.481Z" fill="#94795D"/>
<path fill-rule="evenodd" clip-rule="evenodd" d="M6.40279 110.778L6.32995 111.701C5.65141 111.701 5.02575 111.696 4.40009 111.702C3.22161 111.714 2.04314 111.733 0.86367 111.749L0.749913 111.756C0.581275 111.737 0.274932 111.737 0.266949 111.688C0.217056 111.413 0.233022 111.125 0.245994 110.84C0.246992 110.808 0.361746 110.767 0.428602 110.751L1.34564 110.551C1.91741 110.405 2.11898 110.164 2.14592 109.585C2.17685 108.933 2.20779 108.28 2.21078 107.628C2.21976 106.022 2.20978 104.419 2.21677 102.813C2.21777 102.438 2.08505 102.158 1.72782 102.006C1.30273 101.822 0.875644 101.642 0.445566 101.472C0.242002 101.392 -0.0224311 101.348 0.00151761 101.08C0.0254663 100.807 0.281917 100.736 0.523399 100.682C1.52326 100.458 2.52411 100.24 3.52097 100.002C3.84228 99.9244 4.14962 99.7944 4.5338 99.6634C4.55376 99.8667 4.59068 100.06 4.58669 100.254L4.52781 101.174C4.52682 101.278 4.5817 101.416 4.66053 101.474C4.70843 101.51 4.86908 101.445 4.94891 101.384C5.80108 100.749 6.70315 100.2 7.73195 99.8804C9.32553 99.3848 10.6936 99.8443 11.6515 101.191C11.9888 101.665 11.9898 101.665 12.4578 101.333C13.2611 100.761 14.1013 100.257 15.0413 99.9244C17.1049 99.1941 19.0876 100.121 19.8051 102.157C20.0665 102.897 20.1663 103.66 20.1643 104.44L20.1453 109.62C20.1443 110.047 20.289 110.291 20.7041 110.424C21.1701 110.573 21.6531 110.676 22.178 110.811L22.0562 111.702C21.4595 111.702 20.9107 111.698 20.3619 111.702C19.0207 111.714 17.6796 111.721 16.3395 111.751C16.106 111.757 16.0451 111.701 16.0331 111.486C15.9942 110.801 15.9882 110.802 16.6468 110.648L16.8684 110.592C17.512 110.42 17.7265 110.226 17.7315 109.587C17.7465 107.751 17.7854 105.91 17.6906 104.078C17.5918 102.177 16.0521 101.165 14.1721 101.652C13.5585 101.81 13.0026 102.088 12.4858 102.448C12.3111 102.57 12.2782 102.711 12.2922 102.925C12.3451 103.734 12.378 104.545 12.385 105.355C12.3969 106.774 12.379 108.193 12.385 109.612C12.387 110.187 12.5875 110.407 13.1673 110.54L14.0284 110.735L14.1881 110.77C14.2001 111.04 14.2111 111.309 14.1981 111.579C14.1901 111.748 14.0564 111.763 13.9067 111.76C13.0695 111.74 12.2313 111.712 11.3941 111.714C10.3753 111.716 9.35746 111.745 8.33964 111.762H8.10016C8.10016 111.476 8.08619 111.202 8.11013 110.929C8.11512 110.864 8.23287 110.772 8.3137 110.751L9.31755 110.543C9.74363 110.44 9.9472 110.226 9.97115 109.802C10.0849 107.837 10.1667 105.871 9.97813 103.907C9.94121 103.525 9.81448 103.138 9.65283 102.787C9.13893 101.674 7.98241 101.21 6.64827 101.544C6.01463 101.703 5.44285 101.987 4.90201 102.346C4.64656 102.516 4.52482 102.741 4.52482 103.026C4.52482 104.986 4.53181 106.946 4.53779 108.905L4.54877 109.661C4.56074 110.188 4.78925 110.466 5.32311 110.579C5.66637 110.655 6.01363 110.707 6.40279 110.778Z" fill="#50382B"/>
<path fill-rule="evenodd" clip-rule="evenodd" d="M66.7317 99.8638C66.8863 100.601 66.8833 101.264 66.3305 101.766C65.7817 102.266 65.0872 102.098 64.4097 101.986C64.4725 102.336 64.5424 102.634 64.5763 102.935C64.8228 105.173 63.8399 106.834 61.7214 107.783C60.9211 108.141 60.0719 108.274 59.2048 108.342C58.7737 108.375 58.3965 108.698 58.3556 109.045C58.3137 109.397 58.5392 109.759 58.9903 109.864C59.5221 109.989 60.0769 110.024 60.6228 110.085C61.7943 110.216 62.9787 110.276 64.1362 110.481C65.8865 110.79 66.8634 112.287 66.555 114.01C66.2806 115.543 65.3746 116.658 64.1113 117.514C61.9829 118.959 59.6479 119.381 57.1612 118.644C55.7392 118.222 54.7364 117.306 54.3901 115.823C54.2165 115.081 54.4011 114.41 54.9709 113.906C55.6484 113.31 56.3859 112.778 57.0953 112.215L57.3248 111.989L57.0614 111.808C56.338 111.472 55.7592 111.011 55.5347 110.212C55.4578 109.941 55.5377 109.763 55.7722 109.624C56.1713 109.388 56.5685 109.149 56.9626 108.905C57.1482 108.792 57.3318 108.675 57.5045 108.544C57.74 108.368 57.719 108.237 57.4376 108.135C56.783 107.898 56.2012 107.555 55.7502 107.027C54.9968 106.146 54.7833 105.097 54.8452 103.99C54.9419 102.259 55.9009 101.119 57.4595 100.386C59.3126 99.5148 61.1716 99.46 63.0605 100.254C63.759 100.547 64.4955 100.61 65.2449 100.559C65.8047 100.52 66.2936 100.313 66.7317 99.8638ZM59.9033 112.262C58.5123 112.25 58.0762 112.418 57.26 113.233C56.3459 114.146 56.3509 115.412 57.263 116.329C57.9555 117.024 58.8196 117.35 59.7806 117.447C60.9032 117.561 62.0088 117.515 63.0286 116.964C64.1163 116.375 64.6571 115.28 64.4126 114.177C64.2101 113.267 63.5255 112.85 62.6923 112.611C61.7444 112.339 60.7645 112.287 59.9033 112.262ZM57.1712 103.553C57.2221 103.931 57.243 104.314 57.3288 104.685C57.5514 105.645 57.9774 106.489 58.9524 106.916C60.0969 107.419 61.5588 107.203 62.0597 105.629C62.403 104.551 62.361 103.48 61.9469 102.428C61.7623 101.959 61.465 101.562 61.0389 101.271C60.045 100.591 58.2519 100.501 57.5214 102.003C57.2839 102.491 57.1911 103.01 57.1712 103.553Z" fill="#4F382B"/>
<path fill-rule="evenodd" clip-rule="evenodd" d="M43.1311 99.6223C43.168 99.7895 43.2419 99.9792 43.2439 100.17C43.2469 100.533 43.207 100.895 43.186 101.258V101.573L43.4993 101.338C44.3575 100.646 45.2795 100.056 46.3532 99.7387C48.2911 99.1667 50.2269 100.206 50.8586 102.14C51.098 102.875 51.1928 103.631 51.2018 104.399C51.2218 106.106 51.2337 107.813 51.2517 109.52C51.2577 110.133 51.3295 110.243 51.9213 110.42C52.2566 110.52 52.6028 110.591 52.9491 110.644C53.1397 110.673 53.2215 110.746 53.2115 110.929L53.2135 111.097C53.2065 111.804 53.1566 111.836 52.4571 111.834C50.7827 111.832 49.1093 111.841 47.4349 111.855C46.936 111.859 46.935 111.874 46.8851 111.391L46.8751 111.113C46.906 110.696 46.916 110.7 47.3341 110.64C47.6155 110.599 47.8949 110.535 48.1693 110.465C48.4517 110.393 48.5874 110.189 48.6253 109.915C48.6443 109.776 48.6692 109.638 48.6682 109.499C48.6443 107.633 48.6752 105.766 48.5715 103.904C48.4876 102.397 47.3141 101.499 45.7705 101.602C45.0131 101.654 44.3285 101.901 43.7039 102.329C43.2918 102.611 43.209 103.019 43.2109 103.458C43.2189 105.202 43.2359 106.946 43.2549 108.691C43.2588 109.074 43.2698 109.456 43.3067 109.835C43.3457 110.25 43.4943 110.417 43.9094 110.507C44.3066 110.593 44.7117 110.643 45.1358 110.712L45.1717 111.033C45.1857 111.781 45.1059 111.836 44.3645 111.833C42.6332 111.827 40.9019 111.837 39.1716 111.856C38.8992 111.86 38.7834 111.776 38.7904 111.516L38.7864 111.404C38.7415 110.731 38.7615 110.705 39.4121 110.596L39.7194 110.535C40.4239 110.38 40.6045 110.196 40.6145 109.495C40.6474 107.275 40.6594 105.055 40.6824 102.835C40.6854 102.516 40.5626 102.269 40.2593 102.137C39.8342 101.953 39.4051 101.778 38.975 101.605C38.7375 101.509 38.4661 101.449 38.4571 101.127C38.4512 100.9 38.6986 100.7 39.0369 100.632C39.7164 100.497 40.402 100.385 41.0735 100.22C41.7421 100.056 42.3987 99.8374 43.1311 99.6223Z" fill="#4F372B"/>
<path fill-rule="evenodd" clip-rule="evenodd" d="M80.566 105.422C80.5341 107.496 79.9843 109.172 78.4875 110.431C76.5915 112.027 73.6339 112.57 71.2161 111.376C70.1843 110.867 69.4259 110.085 68.932 109.072C68.1746 107.512 67.985 105.873 68.3801 104.193C68.7713 102.532 69.7981 101.328 71.3348 100.549C72.9154 99.7484 74.5798 99.4356 76.3351 99.856C78.5553 100.387 80.1509 102.16 80.4682 104.419C80.5251 104.815 80.547 105.216 80.566 105.422ZM77.9945 106.545L77.9087 106.535C77.9087 106.34 77.9197 106.144 77.9067 105.949C77.8339 104.731 77.5545 103.57 76.834 102.55C76.1505 101.584 75.2195 101.015 74.0081 100.931C72.652 100.838 71.5124 101.581 71.1123 102.938C70.5116 104.975 70.7151 106.961 71.7709 108.827C72.2309 109.641 72.9124 110.241 73.8255 110.557C75.6146 111.174 77.2012 110.375 77.6672 108.58C77.8389 107.917 77.8888 107.224 77.9945 106.545Z" fill="#4F382B"/>
<path fill-rule="evenodd" clip-rule="evenodd" d="M36.614 105.582C36.577 107.07 36.2188 108.446 35.2808 109.642C34.276 110.922 32.8949 111.607 31.3243 111.895C29.4673 112.235 27.723 111.926 26.2312 110.705C25.5227 110.125 25.0388 109.38 24.7195 108.534C24.1956 107.146 24.0649 105.723 24.3872 104.273C24.7314 102.722 25.6255 101.536 27.0116 100.74C28.6141 99.8217 30.3434 99.4121 32.1905 99.8247C34.5654 100.357 35.9364 101.873 36.4433 104.169C36.5451 104.632 36.5591 105.111 36.614 105.582ZM34.0135 106.564L33.9447 106.554V106.274C33.9058 104.91 33.6334 103.609 32.8021 102.475C32.1865 101.633 31.3622 101.105 30.3055 100.958C28.5832 100.717 27.4576 101.718 27.0844 103.078C26.5974 104.855 26.7501 106.61 27.5035 108.294C27.9735 109.344 28.7159 110.163 29.8565 110.56C31.6346 111.178 33.2452 110.359 33.6952 108.571C33.8609 107.917 33.9108 107.234 34.0135 106.564Z" fill="#4F372B"/>
<path fill-rule="evenodd" clip-rule="evenodd" d="M78.0681 29.7243C79.2925 33.1921 80.1726 36.7323 80.463 40.4005C80.8222 44.9526 80.6586 49.4734 79.6787 53.9502L79.5529 54.308C79.2456 54.309 78.9323 54.2708 78.6319 54.3168C76.0944 54.7079 73.5598 55.1126 71.0242 55.5154C68.4028 55.9319 65.7795 56.3318 63.1631 56.7756C62.2361 56.9321 61.0885 56.7453 60.7143 58.0007L60.5347 58.0603L60.6614 50.5537L60.5327 32.4413L61.7541 32.236C63.7508 31.9163 65.7475 31.5907 67.7472 31.2788C70.1321 30.9083 72.519 30.5465 74.9059 30.1848C75.9596 30.0264 77.0144 29.8788 78.0681 29.7243Z" fill="#439934"/>
<path fill-rule="evenodd" clip-rule="evenodd" d="M58.0143 79.9446C56.7261 78.8594 55.393 77.8221 54.1586 76.6801C47.5149 70.5403 42.6543 63.3124 40.2604 54.5983C39.6008 52.2011 39.1618 49.7637 39.0201 47.2863C38.9203 45.5519 38.7776 43.8028 38.9033 42.0772C39.2356 37.489 39.9132 32.9448 41.2862 28.5247L41.362 28.422C41.4958 28.5961 41.6874 28.7505 41.7552 28.947C43.0963 32.8147 44.4265 36.6863 45.7506 40.5609C49.9107 52.7339 54.0658 64.9099 58.2329 77.081C58.3147 77.3186 58.5253 77.5131 58.6769 77.7272L58.0143 79.9446Z" fill="#45A538"/>
<path fill-rule="evenodd" clip-rule="evenodd" d="M78.0681 29.7243C77.0134 29.8778 75.9586 30.0264 74.9059 30.1848C72.519 30.5465 70.1321 30.9083 67.7472 31.2788C65.7485 31.5897 63.7518 31.9153 61.7541 32.2359L60.5327 32.4412L60.5227 31.6611C60.4818 31.0197 60.414 30.3783 60.405 29.737L60.2683 17.4632C60.2363 14.9027 60.1884 12.3422 60.1356 9.78262C60.1026 8.19194 60.0677 6.60028 59.9949 5.01156C59.9549 4.15804 59.8143 3.30844 59.7584 2.45493C59.7254 1.96414 59.7694 1.46943 59.7803 0.976685C60.403 2.1587 61.0127 3.34951 61.6523 4.52272C62.6631 6.37737 64.2747 7.74416 65.7266 9.23512C71.4603 15.1315 75.5306 21.983 78.0681 29.7243Z" fill="#46A037"/>
<path fill-rule="evenodd" clip-rule="evenodd" d="M60.5359 58.0603L60.7155 58.0006C61.0897 56.7453 62.2372 56.932 63.1643 56.7756C65.7806 56.3317 68.404 55.9319 71.0254 55.5154C73.561 55.1136 76.0955 54.7088 78.6331 54.3168C78.9334 54.2708 79.2468 54.3089 79.5541 54.308C79.0801 55.9661 78.7069 57.6604 78.1052 59.2726C77.4217 61.1009 76.5955 62.8861 75.7183 64.6361C74.4072 67.2514 72.7737 69.6917 70.8757 71.9276C69.4129 73.6503 67.7824 75.2449 66.1489 76.818C65.2448 77.6871 64.1811 78.3959 63.1892 79.1781L62.9318 79.006L62.0067 78.2317L61.0498 76.1747C60.3902 73.7676 60.0449 71.3176 59.9871 68.8265L60.005 68.408L60.1357 66.5954C60.1787 65.9765 60.2365 65.3586 60.2635 64.7398C60.3593 62.5146 60.4451 60.2874 60.5359 58.0603Z" fill="#409433"/>
<path fill-rule="evenodd" clip-rule="evenodd" d="M60.5359 58.0603C60.4461 60.2875 60.3603 62.5156 60.2635 64.7427C60.2366 65.3626 60.1797 65.9805 60.1358 66.5984L59.553 66.8144C58.2578 63.0787 56.9616 59.3821 55.6943 55.6767C53.5978 49.5457 51.5272 43.4059 49.4337 37.2729C47.7444 32.324 46.04 27.3779 44.3267 22.4357C44.2459 22.205 44.0163 22.0232 43.8567 21.8188L47.5887 15.0953C47.7174 15.3134 47.8861 15.5177 47.9669 15.7523C49.6932 20.758 51.4165 25.7647 53.1248 30.7763C55.3481 37.2974 57.5563 43.8214 59.7776 50.3435C59.8664 50.6036 60.0121 50.8441 60.1518 51.1364L60.6627 50.5537C60.6198 53.0566 60.5778 55.5575 60.5359 58.0603Z" fill="#4FAA41"/>
<path fill-rule="evenodd" clip-rule="evenodd" d="M43.8557 21.8188C44.0164 22.0232 44.2459 22.205 44.3257 22.4357C46.0391 27.3779 47.7434 32.323 49.4328 37.2729C51.5263 43.4059 53.5969 49.5457 55.6934 55.6767C56.9606 59.3821 58.2569 63.0777 59.5521 66.8144L60.1348 66.5984L60.0041 68.411L59.8854 68.8284C59.6828 70.8121 59.5122 72.7998 59.2647 74.7796C59.141 75.7719 58.8765 76.7457 58.676 77.7272C58.5253 77.5131 58.3137 77.3186 58.2319 77.081C54.0639 64.9099 49.9098 52.7339 45.7497 40.5609C44.4255 36.6863 43.0944 32.8147 41.7542 28.9471C41.6864 28.7505 41.4948 28.5961 41.3611 28.422L43.8557 21.8188Z" fill="#4AA73C"/>
<path fill-rule="evenodd" clip-rule="evenodd" d="M60.6616 50.5537L60.1507 51.1364C60.011 50.8441 59.8653 50.6036 59.7765 50.3435C57.5553 43.8214 55.347 37.2974 53.1238 30.7763C51.4154 25.7647 49.6921 20.758 47.9658 15.7523C47.885 15.5177 47.7164 15.3134 47.5876 15.0953L52.2028 9.14716C52.3484 9.33682 52.556 9.50596 52.6308 9.72007C53.9121 13.3961 55.1814 17.0751 56.4447 20.7571C57.6241 24.1965 58.7856 27.6399 59.9791 31.0735C60.0589 31.3033 60.3373 31.4656 60.5229 31.6611L60.5329 32.4413L60.6616 50.5537Z" fill="#57AE47"/>
<path fill-rule="evenodd" clip-rule="evenodd" d="M60.5228 31.6611C60.3362 31.4665 60.0588 31.3042 59.979 31.0735C58.7865 27.6399 57.624 24.1965 56.4445 20.757C55.1813 17.0751 53.912 13.3961 52.6307 9.72006C52.5559 9.50595 52.3483 9.33681 52.2026 9.14714C53.7034 7.70702 55.1573 6.21509 56.719 4.84145C58.107 3.62131 59.2226 2.31318 59.2745 0.384227L59.3842 0L59.7794 0.975721C59.7694 1.46847 59.7245 1.96317 59.7574 2.45397C59.8143 3.30748 59.955 4.15708 59.9939 5.01059C60.0668 6.59932 60.1017 8.19097 60.1346 9.78165C60.1875 12.3412 60.2354 14.9017 60.2673 17.4623L60.4041 29.736C60.414 30.3784 60.4829 31.0197 60.5228 31.6611Z" fill="#60B24F"/>
<path fill-rule="evenodd" clip-rule="evenodd" d="M58.6768 77.7262C58.8773 76.7447 59.1418 75.7709 59.2655 74.7785C59.513 72.7997 59.6836 70.8111 59.8862 68.8274L59.9371 68.8196L59.9869 68.8284C60.0448 71.3195 60.3901 73.7696 61.0497 76.1766C60.915 76.3507 60.7264 76.5042 60.6545 76.6997C60.1007 78.2307 59.5778 79.7745 59.021 81.3045C58.9452 81.5138 58.7316 81.677 58.583 81.8599L58.0132 79.9436L58.6768 77.7262Z" fill="#A9AA88"/>
<path fill-rule="evenodd" clip-rule="evenodd" d="M58.583 81.8608C58.7317 81.677 58.9452 81.5148 59.0211 81.3055C59.5779 79.7755 60.1008 78.2317 60.6546 76.7007C60.7254 76.5051 60.915 76.3516 61.0497 76.1776L62.0067 78.2346C61.8181 78.4967 61.5566 78.7342 61.4519 79.0266L59.6198 84.2982C59.5439 84.5103 59.2875 84.659 59.1139 84.8379L58.583 81.8608Z" fill="#B6B598"/>
<path fill-rule="evenodd" clip-rule="evenodd" d="M59.1138 84.8369C59.2864 84.658 59.5438 84.5094 59.6197 84.2972L61.4518 79.0256C61.5555 78.7333 61.818 78.4957 62.0066 78.2337L62.9326 79.007C62.4855 79.4402 62.2371 79.9407 62.3868 80.5733L62.1054 81.4757C61.9776 81.6301 61.792 81.7651 61.7292 81.942C61.0895 83.737 60.4798 85.5418 59.8352 87.3359C59.7534 87.5627 59.5269 87.7416 59.3682 87.943L59.1138 84.8369Z" fill="#C2C1A7"/>
<path fill-rule="evenodd" clip-rule="evenodd" d="M59.3673 87.942C59.527 87.7406 59.7535 87.5617 59.8343 87.3349C60.4789 85.5409 61.0896 83.7361 61.7282 81.9411C61.7911 81.7641 61.9767 81.6302 62.1044 81.4747L61.7163 85.6161C61.6125 85.7335 61.4628 85.8361 61.4129 85.972L60.1217 89.5972C60.0309 89.8446 59.8572 90.0655 59.7215 90.2973C59.6008 90.1428 59.3853 89.9932 59.3753 89.8329C59.3374 89.2052 59.3643 88.5726 59.3673 87.942Z" fill="#CECDB7"/>
<path fill-rule="evenodd" clip-rule="evenodd" d="M59.7224 90.2982C59.8581 90.0665 60.0317 89.8456 60.1226 89.5982L61.4138 85.973C61.4637 85.8361 61.6144 85.7344 61.7171 85.6171L61.7271 88.3351L60.7981 90.6688L59.7224 90.2982Z" fill="#DBDAC7"/>
<path fill-rule="evenodd" clip-rule="evenodd" d="M60.7983 90.6687L61.7273 88.335L61.9189 91.096L60.7983 90.6687Z" fill="#EBE9DC"/>
<path fill-rule="evenodd" clip-rule="evenodd" d="M62.3858 80.5733C62.2371 79.9417 62.4846 79.4411 62.9316 79.007L63.1891 79.1791L62.3858 80.5733Z" fill="#CECDB7"/>
<path fill-rule="evenodd" clip-rule="evenodd" d="M59.987 68.8294L59.9371 68.8206L59.8862 68.8284L60.005 68.411L59.987 68.8294Z" fill="#4FAA41"/>
</svg>
