<svg width="243" height="126" viewBox="0 0 243 126" fill="none" xmlns="http://www.w3.org/2000/svg">
<path d="M0.00195639 114.768H8.03938V83.0268L20.4829 110.698C21.9503 114.048 23.9596 115.231 27.902 115.231C31.8445 115.231 33.7775 114.048 35.2449 110.698L47.6884 83.0268V114.768H55.7258V83.0796C55.7258 79.9883 54.4893 78.4916 51.938 77.7207C45.8317 75.8151 41.7347 77.4644 39.8799 81.5868L27.6692 108.896L15.8459 81.5849C14.0674 77.4644 9.89416 75.8151 3.78784 77.7188C1.23653 78.4916 0 79.9864 0 83.0777V114.768H0.00195639ZM62.4113 88.9297H70.4468V106.417C70.3724 107.366 70.752 109.596 75.1542 109.667C77.4003 109.702 92.4929 109.667 92.6338 109.667V88.8436H100.689C100.726 88.8436 100.681 117.241 100.681 117.358C100.724 124.362 91.992 125.883 87.9655 126H62.5854V120.592C62.6285 120.592 87.9479 120.598 88.0105 120.59C93.1855 120.044 92.5731 117.473 92.5712 116.609V114.5H75.4887C67.5413 114.427 62.4778 110.958 62.4133 106.967C62.4093 106.601 62.5874 89.1057 62.4113 88.9297V88.9297Z" fill="#00618A"/>
<path d="M106.885 114.768H129.995C132.701 114.768 135.33 114.202 137.416 113.224C140.893 111.627 142.593 109.463 142.593 106.626V100.753C142.593 98.4345 140.662 96.2686 136.874 94.8286C134.865 94.0538 132.39 93.6449 129.993 93.6449H120.253C117.008 93.6449 115.462 92.6666 115.077 90.5027C115 90.2444 115 90.039 115 89.7807V86.122C115 85.9166 115 85.7092 115.077 85.4529C115.462 83.8035 116.313 83.3398 119.173 83.0816L119.946 83.0307H142.902V77.6737H120.334C117.088 77.6737 115.388 77.8792 113.842 78.3429C109.05 79.8377 106.961 82.207 106.961 86.3294V91.0173C106.961 94.6251 111.06 97.7164 117.937 98.4384C118.712 98.4873 119.483 98.5421 120.255 98.5421H128.604C128.913 98.5421 129.222 98.5421 129.455 98.591C132.006 98.7964 133.086 99.2621 133.861 100.188C134.325 100.651 134.477 101.117 134.477 101.629V106.319C134.477 106.885 134.092 107.607 133.319 108.225C132.625 108.843 131.464 109.256 129.919 109.36L129.068 109.411H106.885V114.768ZM192.739 105.443C192.739 110.954 196.836 114.046 205.104 114.666C205.877 114.717 206.65 114.768 207.423 114.768H228.369V109.411H207.27C202.555 109.411 200.778 108.225 200.778 105.39V77.6698H192.741V105.443H192.739ZM147.723 105.721V86.6151C147.723 81.7629 151.131 78.8183 157.87 77.889C158.566 77.7853 159.343 77.7344 160.038 77.7344H175.296C176.071 77.7344 176.768 77.7853 177.541 77.889C184.279 78.8183 187.689 81.7609 187.689 86.6151V105.721C187.689 109.661 186.241 111.766 182.905 113.14L190.825 120.287H181.491L175.085 114.503L168.636 114.912H160.038C158.566 114.912 157.019 114.707 155.314 114.241C150.202 112.848 147.723 110.162 147.723 105.721V105.721ZM156.398 105.257C156.398 105.515 156.475 105.775 156.553 106.084C157.017 108.305 159.11 109.544 162.284 109.544H169.585L162.878 103.488H172.213L178.061 108.771C179.141 108.194 179.849 107.317 180.098 106.188C180.174 105.93 180.174 105.672 180.174 105.413V87.0846C180.174 86.8792 180.174 86.619 180.098 86.3607C179.632 84.2946 177.541 83.109 174.443 83.109H162.282C158.721 83.109 156.396 84.6585 156.396 87.0846V105.257H156.398Z" fill="#E48E00"/>
<path d="M235.441 68.7774C230.501 68.6424 226.727 69.1022 223.498 70.462C222.581 70.8494 221.119 70.8592 220.97 72.0076C221.473 72.5379 221.551 73.3263 221.953 73.9759C222.723 75.2222 224.025 76.8931 225.185 77.7677C226.451 78.7244 227.758 79.7496 229.119 80.5792C231.536 82.0544 234.236 82.8957 236.566 84.3709C237.937 85.2435 239.299 86.3392 240.639 87.3233C241.303 87.8066 241.745 88.5638 242.608 88.867V88.7281C242.156 88.1529 242.038 87.3625 241.624 86.7599L239.796 84.9325C238.01 82.5612 235.744 80.4814 233.332 78.7518C231.41 77.3724 227.11 75.5079 226.308 73.2716L226.167 73.1326C227.529 72.9781 229.125 72.485 230.381 72.1485C232.494 71.5811 234.382 71.7279 236.564 71.1644L239.514 70.3192V69.7596C238.413 68.6287 237.624 67.13 236.423 66.1067C233.279 63.4283 229.843 60.7517 226.308 58.5174C224.347 57.2809 221.923 56.4767 219.843 55.428C219.147 55.0739 217.918 54.8919 217.455 54.303C216.361 52.9119 215.768 51.1491 214.925 49.5271C213.164 46.1325 211.43 42.423 209.867 38.8484C208.803 36.4125 208.106 34.0099 206.778 31.8245C200.398 21.3355 193.53 15.0042 182.892 8.78242C180.629 7.45785 177.903 6.93741 175.025 6.25459L170.388 5.97285C169.447 5.57959 168.465 4.42524 167.579 3.86567C164.053 1.63914 155.014 -3.20327 152.404 3.16523C150.756 7.18394 154.869 11.1048 156.338 13.1416C157.37 14.5698 158.692 16.1703 159.43 17.7766C159.915 18.8331 159.997 19.8916 160.414 21.0088C161.433 23.7596 162.323 26.7551 163.644 29.2966C164.311 30.584 165.049 31.9399 165.892 33.0903C166.409 33.7947 167.297 34.1077 167.436 35.1975C166.569 36.4106 166.518 38.2967 166.031 39.8325C163.836 46.7567 164.663 55.3635 167.858 60.4876C168.839 62.0626 171.147 65.4357 174.321 64.1404C177.097 63.0096 176.479 59.5054 177.273 56.4122C177.453 55.7137 177.342 55.1971 177.694 54.7276V54.8684L180.224 59.9261C182.096 62.9411 185.416 66.0891 188.232 68.2159C189.691 69.3174 190.842 71.225 192.728 71.8687V71.7259H192.589C192.221 71.1565 191.652 70.9218 191.182 70.462C190.083 69.3839 188.86 68.0457 187.952 66.8091C185.391 63.3343 183.129 59.5289 181.067 55.5689C180.083 53.6789 179.228 51.5932 178.398 49.668C178.077 48.9265 178.081 47.8034 177.416 47.4219C176.504 48.8306 175.168 49.9713 174.464 51.6363C173.341 54.2971 173.196 57.543 172.779 60.9083L172.497 61.0472C170.539 60.5756 169.852 58.5604 169.124 56.8328C167.285 52.4639 166.943 45.4262 168.563 40.396C168.982 39.093 170.873 34.994 170.107 33.7908C169.741 32.5914 168.533 31.8988 167.86 30.9792C167.025 29.8464 166.19 28.3555 165.612 27.0447C164.106 23.6383 163.403 19.8133 161.821 16.3679C161.062 14.7205 159.782 13.0555 158.729 11.592C157.565 9.96808 156.26 8.7746 155.356 6.81416C155.035 6.11763 154.599 5.00045 155.075 4.28436C155.225 3.8011 155.442 3.59958 155.92 3.4411C156.734 2.81305 159.003 3.65045 159.852 4.00263C162.106 4.9398 163.987 5.83002 165.896 7.09394C166.812 7.70242 167.737 8.87633 168.847 9.20112H170.11C172.088 9.65503 174.305 9.34004 176.152 9.90156C179.42 10.8955 182.347 12.4392 185.004 14.1179C193.102 19.2322 199.721 26.5105 204.252 35.1936C204.98 36.5925 205.297 37.9249 205.936 39.408C207.232 42.3975 208.863 45.4752 210.151 48.4002C211.436 51.3173 212.69 54.2619 214.508 56.69C215.463 57.9656 219.153 58.6504 220.83 59.3587C222.005 59.8556 223.931 60.3741 225.044 61.0433C227.171 62.3267 229.233 63.8548 231.227 65.2596C232.222 65.9678 235.288 67.5076 235.441 68.7774V68.7774ZM172.638 15.2487C171.609 15.2292 170.879 15.3622 170.108 15.5305V15.6694H170.249C170.74 16.6809 171.607 17.3305 172.216 18.1992L173.622 21.1496L173.761 21.0107C174.632 20.3983 175.029 19.4181 175.025 17.9194C174.675 17.5516 174.624 17.0918 174.323 16.6555C173.924 16.0685 173.145 15.7398 172.638 15.2487V15.2487Z" fill="#00618A"/>
</svg>
