<svg width="132" height="119" viewBox="0 0 132 119" fill="none" xmlns="http://www.w3.org/2000/svg">
<path d="M107.895 38.5701C106.534 38.0925 105.123 37.6407 103.671 37.2133C103.91 36.2203 104.129 35.2402 104.324 34.2767C107.521 18.456 105.431 5.71065 98.2911 1.51436C91.4452 -2.50934 80.2493 1.68601 68.942 11.7156C67.8547 12.68 66.7643 13.7011 65.6744 14.7713C64.9482 14.0632 64.2232 13.379 63.5 12.7246C51.6497 2.00027 39.7715 -2.5191 32.639 1.68934C25.7997 5.7247 23.7743 17.7065 26.6528 32.6999C26.9307 34.1481 27.2556 35.6271 27.6231 37.1307C25.942 37.6171 24.319 38.1356 22.7662 38.6873C8.87288 43.6242 0 51.3616 0 59.3873C0 67.6764 9.52505 75.9904 23.996 81.0316C25.138 81.4294 26.3229 81.8056 27.5441 82.1627C27.1477 83.789 26.803 85.3827 26.5135 86.937C23.7689 101.67 25.9123 113.369 32.7334 117.379C39.779 121.52 51.6034 117.263 63.1174 107.005C64.0275 106.194 64.9408 105.334 65.8557 104.433C67.0416 105.597 68.2256 106.699 69.4034 107.732C80.556 117.514 91.5711 121.464 98.3859 117.442C105.424 113.289 107.712 100.722 104.742 85.4322C104.515 84.2644 104.251 83.0714 103.955 81.8572C104.785 81.607 105.601 81.3487 106.395 81.0802C121.439 75.9999 131.227 67.7871 131.227 59.3873C131.227 51.3326 122.068 43.543 107.895 38.5701ZM104.632 75.6566C103.915 75.8987 103.179 76.1328 102.428 76.3596C100.767 71.0008 98.526 65.3025 95.7831 59.4152C98.4006 53.6681 100.555 48.0426 102.17 42.7186C103.512 43.1145 104.815 43.5321 106.071 43.9727C118.214 48.2336 125.621 54.5332 125.621 59.3873C125.621 64.5578 117.622 71.2699 104.632 75.6566ZM99.2427 86.5418C100.556 93.3029 100.743 99.4157 99.8736 104.194C99.092 108.488 97.5202 111.351 95.5768 112.498C91.4412 114.937 82.5973 111.766 73.0594 103.401C71.966 102.442 70.8647 101.418 69.7598 100.334C73.4574 96.2122 77.153 91.4204 80.7597 86.0988C87.1036 85.525 93.0971 84.587 98.5323 83.3064C98.8 84.407 99.0378 85.4865 99.2427 86.5418ZM44.7384 112.076C40.6979 113.53 37.4798 113.572 35.5345 112.429C31.3952 109.995 29.6744 100.602 32.0217 88.0027C32.2905 86.5597 32.6105 85.0774 32.9794 83.5623C38.355 84.7739 44.3046 85.6457 50.6637 86.1712C54.2947 91.3786 58.097 96.165 61.9287 100.356C61.0915 101.18 60.2577 101.964 59.4284 102.703C54.337 107.239 49.2349 110.457 44.7384 112.076ZM25.8091 75.6249C19.4103 73.3959 14.1259 70.4987 10.5038 67.3373C7.24902 64.4964 5.60576 61.6759 5.60576 59.3873C5.60576 54.517 12.7298 48.305 24.6115 44.0827C26.0532 43.5704 27.5623 43.0876 29.1285 42.6341C30.7706 48.0783 32.9247 53.7704 35.5242 59.5264C32.8911 65.3678 30.7064 71.1506 29.0482 76.6587C27.9316 76.3316 26.8499 75.9873 25.8091 75.6249ZM32.1543 31.6026C29.6882 18.7566 31.3261 9.06607 35.4476 6.63438C39.8378 4.04389 49.5458 7.73738 59.7776 16.9973C60.4317 17.5891 61.0883 18.2086 61.7467 18.8495C57.934 23.0222 54.1665 27.7727 50.5677 32.9494C44.396 33.5325 38.4882 34.4691 33.0564 35.7232C32.7149 34.3231 32.4125 32.9475 32.1543 31.6026ZM88.7599 45.8488C87.4614 43.5628 86.1284 41.3308 84.7694 39.1598C88.9564 39.6993 92.9679 40.4154 96.7352 41.2918C95.6041 44.9862 94.1945 48.849 92.5351 52.8089C91.3448 50.5055 90.0857 48.1831 88.7599 45.8488ZM65.6763 22.9329C68.2621 25.7882 70.8516 28.976 73.3986 32.4347C70.832 32.3112 68.2336 32.2469 65.6137 32.2469C63.0186 32.2469 60.4394 32.3097 57.8887 32.4311C60.4382 29.0045 63.0501 25.821 65.6763 22.9329ZM42.4448 45.8883C41.1478 48.1807 39.9121 50.4905 38.7404 52.8046C37.1079 48.8585 35.7113 44.9781 34.5705 41.2313C38.3146 40.3773 42.3073 39.6791 46.4676 39.1498C45.0895 41.3408 43.7454 43.5897 42.4448 45.8883ZM46.5874 80.0324C42.289 79.5436 38.2364 78.8813 34.4932 78.0509C35.6522 74.2372 37.0797 70.274 38.7468 66.2429C39.9214 68.5553 41.162 70.8661 42.467 73.1635C43.7964 75.504 45.1738 77.7967 46.5874 80.0324ZM65.8314 96.2445C63.1744 93.3227 60.5242 90.0906 57.9358 86.614C60.4485 86.7144 63.0102 86.7659 65.6137 86.7659C68.2885 86.7659 70.9326 86.7044 73.5352 86.5864C70.9798 90.1256 68.3997 93.3627 65.8314 96.2445ZM92.5886 66.0375C94.3426 70.1121 95.8211 74.0546 96.9951 77.8033C93.1903 78.688 89.0823 79.4006 84.754 79.93C86.1162 77.7298 87.461 75.4595 88.7823 73.1242C90.1191 70.7616 91.3884 68.3953 92.5886 66.0375ZM83.9264 70.2697C81.8751 73.8949 79.7691 77.3555 77.6311 80.6221C73.737 80.9059 69.714 81.0521 65.6137 81.0521C61.53 81.0521 57.5577 80.9228 53.7325 80.6697C51.5083 77.3603 49.3566 73.8894 47.3183 70.3009C45.2854 66.7222 43.4149 63.1132 41.7196 59.5245C43.4144 55.9274 45.2805 52.3144 47.3017 48.7421C49.3283 45.1603 51.4607 41.707 53.6643 38.4182C57.567 38.1175 61.569 37.9607 65.6135 37.9607C69.6762 37.9607 73.6835 38.1187 77.5851 38.422C79.7551 41.6868 81.8734 45.1295 83.9079 48.7118C85.9656 52.3344 87.8557 55.9234 89.5651 59.4433C87.8609 63.0237 85.9749 66.6488 83.9264 70.2697ZM95.4909 6.46439C99.8853 9.04726 101.594 19.464 98.8332 33.1235C98.6571 33.9951 98.4588 34.8828 98.2434 35.7825C92.799 34.5022 86.887 33.5494 80.6973 32.9575C77.0915 27.7239 73.3549 22.966 69.6042 18.8469C70.6126 17.8581 71.6196 16.9154 72.6224 16.0257C82.3105 7.4324 91.3653 4.03961 95.4909 6.46439ZM65.6137 47.4439C72.0854 47.4439 77.3319 52.791 77.3319 59.3873C77.3319 65.9834 72.0854 71.3308 65.6137 71.3308C59.1421 71.3308 53.8956 65.9834 53.8956 59.3873C53.8956 52.791 59.1421 47.4439 65.6137 47.4439Z" fill="#00D8FF"/>
</svg>
